<svg width="80" height="81" viewBox="0 0 80 81" fill="none" xmlns="http://www.w3.org/2000/svg">
<path d="M46.6786 20.0601L32.1131 20.3781C30.7774 20.3781 29.5052 21.1413 28.8692 22.3498L22.0635 34.8165C21.4274 35.9614 21.4274 37.297 22.0635 38.4419L28.8056 50.8449C29.4417 52.0534 30.7774 52.8167 32.1131 52.8167L47.3784 52.8167C48.7777 52.8167 50.0498 52.0534 50.6858 50.8449L57.746 38.1239C58.4456 36.9154 58.382 35.4525 57.6824 34.3076L49.9226 21.841C49.2229 20.6961 48.0144 20.0601 46.6786 20.0601Z" fill="#0B9649"/>
<path d="M42.7348 0.342349L51.7667 6.51206C52.9752 7.21172 52.9752 8.67461 52.4028 9.94672L49.6042 15.7348C49.159 16.6253 48.2049 17.2613 47.1872 17.2613L33.0032 17.2613C31.9855 17.2613 31.0315 16.6889 30.5863 15.7348L27.7876 9.75591C27.2152 8.48381 27.2152 7.02087 28.4237 6.32122L37.3284 0.278721C38.2825 -0.10291 41.908 -0.102887 42.7348 0.342349Z" fill="#0B9649"/>
<path d="M52.7847 16.307L55.2017 10.7097C55.6469 9.62843 56.8554 8.99239 58.0003 9.24681C61.4986 10.0101 68.368 11.791 70.2761 13.6992C72.8203 16.2434 75.3009 20.3141 76.5094 23.3035C76.5094 23.3035 76.0006 31.8903 75.0465 36.0882C74.7921 37.2967 73.5836 37.9964 72.3751 37.7419L63.2159 35.7066C62.1982 35.4521 61.3078 34.8161 60.7989 33.9256L53.1027 20.6321C52.2759 19.36 52.2123 17.7063 52.7847 16.307Z" fill="#0B9649"/>
<path d="M27.2154 16.307L24.7985 10.7097C24.3532 9.62843 23.1447 8.99239 21.9998 9.24681C18.5015 10.0101 11.6321 11.791 9.72399 13.6992C7.17978 16.2434 4.69922 20.3141 3.49072 23.3035C3.49072 23.3035 3.99952 31.8903 4.9536 36.0882C5.20802 37.2967 6.41656 37.9964 7.62506 37.7419L16.7841 35.7066C17.8018 35.4521 18.6923 34.8161 19.2012 33.9256L26.8974 20.6321C27.7243 19.36 27.8515 17.7063 27.2154 16.307Z" fill="#0B9649"/>
<path d="M14.9399 8.86558C14.9399 8.86558 23.0178 1.6782 32.6221 0.724121L25.3075 5.74895C25.0531 5.93976 24.7987 6.06696 24.4807 6.13056L14.9399 8.86558Z" fill="#0B9649"/>
<path d="M65.2516 8.86558C65.2516 8.86558 57.1737 1.6782 47.5693 0.724121L54.8839 5.74895C55.1384 5.93976 55.3928 6.06696 55.7108 6.13056L65.2516 8.86558Z" fill="#0B9649"/>
<path d="M31.477 55.2337C34.8481 55.2973 45.4701 55.4245 48.6504 55.4881C49.2228 55.4881 49.7317 55.7425 50.0497 56.2513C51.3854 58.1595 55.0109 63.2479 56.6646 65.3469C57.1099 65.9193 57.1099 66.6826 56.7282 67.255C54.8201 70.2445 49.1592 78.8312 47.8235 79.2128C46.2334 79.6581 36.4382 80.8029 32.4947 79.2764C32.3674 79.2128 32.2402 79.1492 32.1766 79.022C31.1589 77.8771 24.6076 70.4989 22.9539 67.1914C22.6995 66.619 22.763 65.9829 23.0811 65.4741C24.544 63.5023 28.5511 58.0959 29.9504 55.9969C30.2685 55.4881 30.8409 55.17 31.477 55.2337Z" fill="#0B9649"/>
<path d="M61.7533 37.8691C61.7533 37.8691 71.9937 39.9045 73.6475 41.4946C73.6475 41.4946 73.7111 54.5973 73.0114 57.0143C73.0114 57.0143 64.87 64.2017 59.6543 64.8377C59.6543 64.8377 53.103 58.032 52.4033 54.4701C52.4033 54.4701 61.3717 39.8409 61.7533 37.8691Z" fill="#0B9649"/>
<path d="M78.7358 29.4097C78.7358 29.4097 82.9973 49.7633 75.8735 58.1592L75.8735 40.4769C75.8735 40.2225 75.9372 39.9681 76.0008 39.7773C76.5732 38.1872 78.7358 31.6358 78.7358 29.4097Z" fill="#0B9649"/>
<path d="M27.5333 78.2589C27.5333 78.2589 12.2681 75.2059 5.27148 60.195L6.16197 59.3682C6.16197 59.3682 15.6391 67.0644 19.9007 67.2552C19.9643 67.3188 27.0881 77.8137 27.5333 78.2589Z" fill="#0B9649"/>
<path d="M52.4668 78.2589C52.4668 78.2589 67.732 75.2059 74.7286 60.195L73.8381 59.3682C73.8381 59.3682 64.361 67.0644 60.0994 67.2552C60.0994 67.3188 52.9756 77.8137 52.4668 78.2589Z" fill="#0B9649"/>
<path d="M18.2472 37.8691C18.2472 37.8691 8.0068 39.9045 6.35307 41.4946C6.35307 41.4946 6.28946 54.5973 6.98912 57.0143C6.98912 57.0143 15.1306 64.2017 20.3462 64.8377C20.3462 64.8377 26.8975 58.032 27.5971 54.4701C27.5971 54.4701 18.6288 39.8409 18.2472 37.8691Z" fill="#0B9649"/>
<path d="M1.26446 29.4097C1.26446 29.4097 -2.99708 49.7633 4.1267 58.1592L4.1267 40.4769C4.1267 40.2225 4.06305 39.9681 3.99944 39.7773C3.4906 38.1872 1.26446 31.6358 1.26446 29.4097Z" fill="#0B9649"/>
</svg>
