<?xml version="1.0" encoding="utf-8"?>
<!-- Generator: Adobe Illustrator 25.2.1, SVG Export Plug-In . SVG Version: 6.00 Build 0)  -->
<svg version="1.1" id="Capa_1" xmlns="http://www.w3.org/2000/svg" xmlns:xlink="http://www.w3.org/1999/xlink" x="0px" y="0px"
	 viewBox="0 0 317 331" style="enable-background:new 0 0 317 331;" xml:space="preserve">
<style type="text/css">
	.st0{fill:#0B9649;}
</style>
<g>
	<path class="st0" d="M169.2,88.2l-23.4,0.5c-2.1,0-4.2,1.2-5.2,3.2L129.7,112c-1,1.8-1,4,0,5.8l10.8,20c1,1.9,3.2,3.2,5.3,3.2h24.6
		c2.3,0,4.3-1.2,5.3-3.2l11.4-20.5c1.1-1.9,1-4.3-0.1-6.1l-12.5-20.1C173.3,89.2,171.4,88.2,169.2,88.2z"/>
	<path class="st0" d="M162.9,56.5l14.5,9.9c1.9,1.1,1.9,3.5,1,5.5l-4.5,9.3c-0.7,1.4-2.3,2.5-3.9,2.5h-22.8c-1.6,0-3.2-0.9-3.9-2.5
		l-4.5-9.6c-0.9-2-0.9-4.4,1-5.5l14.3-9.7C155.7,55.8,161.6,55.8,162.9,56.5z"/>
	<path class="st0" d="M179.1,82.2l3.9-9c0.7-1.7,2.7-2.8,4.5-2.4c5.6,1.2,16.7,4.1,19.8,7.2c4.1,4.1,8.1,10.6,10,15.5
		c0,0-0.8,13.8-2.4,20.6c-0.4,1.9-2.4,3.1-4.3,2.7l-14.7-3.3c-1.6-0.4-3.1-1.4-3.9-2.9l-12.4-21.4C178.3,87.1,178.1,84.4,179.1,82.2
		z"/>
	<path class="st0" d="M137.9,82.2l-3.9-9c-0.7-1.7-2.7-2.8-4.5-2.4c-5.6,1.2-16.7,4.1-19.8,7.2c-4.1,4.1-8.1,10.6-10,15.5
		c0,0,0.8,13.8,2.4,20.6c0.4,1.9,2.4,3.1,4.3,2.7l14.7-3.3c1.6-0.4,3.1-1.4,3.9-2.9l12.4-21.4C138.7,87.1,139,84.4,137.9,82.2z"/>
	<path class="st0" d="M118.2,70.2c0,0,13-11.6,28.4-13.1l-11.8,8.1c-0.4,0.3-0.8,0.5-1.3,0.6L118.2,70.2z"/>
	<path class="st0" d="M199.1,70.2c0,0-13-11.6-28.4-13.1l11.8,8.1c0.4,0.3,0.8,0.5,1.3,0.6L199.1,70.2z"/>
	<path class="st0" d="M144.8,144.8c5.4,0.1,22.5,0.3,27.6,0.4c0.9,0,1.7,0.4,2.3,1.2c2.1,3.1,8,11.3,10.6,14.6
		c0.7,0.9,0.7,2.1,0.1,3.1c-3.1,4.8-12.2,18.6-14.3,19.2c-2.6,0.7-18.3,2.6-24.7,0.1c-0.2-0.1-0.4-0.2-0.5-0.4
		c-1.6-1.8-12.2-13.7-14.8-19c-0.4-0.9-0.3-1.9,0.2-2.8c2.4-3.2,8.8-11.9,11.1-15.2C142.8,145.2,143.8,144.7,144.8,144.8z"/>
	<path class="st0" d="M214.3,152.8"/>
	<path class="st0" d="M193.5,116.9c0,0,16.5,3.3,19.1,5.8c0,0,0.1,21.1-1,25c0,0-13.1,11.6-21.5,12.6c0,0-10.5-10.9-11.7-16.7
		C178.5,143.6,192.9,120,193.5,116.9z"/>
	<path class="st0" d="M220.8,103.2c0,0,6.9,32.7-4.6,46.3V121c0-0.4,0.1-0.8,0.2-1.1C217.3,117.4,220.8,106.8,220.8,103.2z"/>
	<path class="st0" d="M138.4,181.8c0,0-24.6-4.9-35.8-29.1l1.4-1.3c0,0,15.2,12.4,22.1,12.7C126.3,164.2,137.7,181.1,138.4,181.8z"
		/>
	<path class="st0" d="M178.6,181.8c0,0,24.6-4.9,35.8-29.1l-1.4-1.3c0,0-15.2,12.4-22.1,12.7C190.8,164.2,179.4,181.1,178.6,181.8z"
		/>
	<path class="st0" d="M123.5,116.9c0,0-16.5,3.3-19.1,5.8c0,0-0.1,21.1,1,25c0,0,13.1,11.6,21.5,12.6c0,0,10.5-10.9,11.7-16.7
		C138.5,143.6,124.1,120,123.5,116.9z"/>
	<path class="st0" d="M96.2,103.2c0,0-6.9,32.7,4.6,46.3V121c0-0.4-0.1-0.8-0.2-1.1C99.8,117.4,96.2,106.8,96.2,103.2z"/>
</g>
<g>
	<path class="st0" d="M120.5,231.1v4h-10.2v6.3h7.8v3.9h-7.8v10.3h-4.9v-24.4h15.1V231.1z"/>
	<path class="st0" d="M142.2,236.1v19.4h-4.9V253c-0.6,0.8-1.5,1.5-2.5,2s-2.1,0.7-3.3,0.7c-1.5,0-2.9-0.3-4-1
		c-1.2-0.6-2.1-1.6-2.7-2.8c-0.7-1.2-1-2.7-1-4.5V236h4.9v10.7c0,1.5,0.4,2.7,1.2,3.6s1.8,1.2,3.1,1.2c1.4,0,2.4-0.4,3.2-1.2
		s1.2-2,1.2-3.6V236h4.8V236.1z M136.9,231.1l-8,3.7v-3.5l8-4.2V231.1z"/>
	<path class="st0" d="M152.8,240.1v9.4c0,0.7,0.2,1.1,0.5,1.4c0.3,0.3,0.8,0.4,1.6,0.4h2.3v4.1H154c-4.1,0-6.2-2-6.2-6v-9.3h-2.3v-4
		h2.3v-4.8h4.9v4.8h4.3v4L152.8,240.1L152.8,240.1z"/>
	<path class="st0" d="M168.2,236.7c1.1-0.6,2.4-0.9,3.8-0.9c1.7,0,3.2,0.4,4.5,1.2s2.4,2,3.2,3.5s1.2,3.2,1.2,5.2s-0.4,3.7-1.2,5.3
		c-0.8,1.5-1.8,2.7-3.2,3.6c-1.3,0.8-2.8,1.3-4.5,1.3c-1.4,0-2.7-0.3-3.8-0.9c-1.1-0.6-2-1.3-2.6-2.2v2.8h-4.9v-25.9h4.9v9.3
		C166.2,238,167.1,237.3,168.2,236.7z M175.1,242.7c-0.5-0.9-1.1-1.5-1.9-1.9c-0.8-0.4-1.6-0.7-2.5-0.7s-1.7,0.2-2.5,0.7
		s-1.4,1.1-1.9,2s-0.7,1.9-0.7,3c0,1.2,0.2,2.2,0.7,3c0.5,0.9,1.1,1.5,1.9,2c0.8,0.5,1.6,0.7,2.5,0.7s1.8-0.2,2.5-0.7
		c0.8-0.5,1.4-1.1,1.9-2s0.7-1.9,0.7-3.1C175.8,244.6,175.6,243.6,175.1,242.7z"/>
	<path class="st0" d="M188,254.6c-1.5-0.8-2.7-2-3.5-3.5c-0.9-1.5-1.3-3.3-1.3-5.2c0-2,0.4-3.7,1.3-5.2c0.9-1.5,2.1-2.7,3.6-3.5
		s3.2-1.2,5.1-1.2c1.9,0,3.6,0.4,5.1,1.2s2.7,2,3.6,3.5c0.9,1.5,1.3,3.3,1.3,5.2c0,2-0.4,3.7-1.3,5.2c-0.9,1.5-2.1,2.7-3.6,3.5
		s-3.2,1.2-5.1,1.2C191.1,255.8,189.4,255.4,188,254.6z M195.5,250.9c0.8-0.4,1.4-1.1,1.9-1.9c0.5-0.9,0.7-1.9,0.7-3.2
		c0-1.8-0.5-3.3-1.5-4.3s-2.2-1.5-3.6-1.5c-1.4,0-2.6,0.5-3.5,1.5s-1.4,2.4-1.4,4.3c0,1.8,0.5,3.3,1.4,4.3s2.1,1.5,3.5,1.5
		C193.9,251.5,194.7,251.3,195.5,250.9z"/>
	<path class="st0" d="M211.6,229.6v25.9h-4.9v-25.9H211.6z"/>
</g>
</svg>
