<?xml version="1.0" encoding="utf-8"?>
<!-- Generator: Adobe Illustrator 25.2.1, SVG Export Plug-In . SVG Version: 6.00 Build 0)  -->
<svg version="1.1" id="Capa_1" xmlns="http://www.w3.org/2000/svg" xmlns:xlink="http://www.w3.org/1999/xlink" x="0px" y="0px"
	 viewBox="0 0 317 331" style="enable-background:new 0 0 317 331;" xml:space="preserve">
<style type="text/css">
	.st0{fill:#302D2C;}
	.st1{fill:#0B9649;}
</style>
<g>
	<g>
		<path class="st0" d="M208.1,132.2c-0.2-7.2-2.7-9.2-8.8-7.6c-0.7,0.2-1.3,0.3-2.1,0.5c-20.8,5.4-39.3-1.9-50.8-20
			c-5.5-8.7-8.8-18.2-11-28.2c-1-4.6-1.9-9.4-2.7-14c-7.2,3.7-25.2-0.4-23.5,9.8c1.4,7.6,0.5,15.4-2.6,22.5
			c-1.3,3.1-2.7,6.2-4.1,9.3c-3.3,8.1-2.5,16.2-0.6,24.5C137.3,133.6,172.5,135.8,208.1,132.2z"/>
		<path class="st0" d="M102.3,145.4c-0.1,4.8-5.1,15.2,2.3,17.6c6.4-13.4,19-16.3,28.5-5.8c1.3,1.5,3.4,2,5.3,1.3
			c8.2-3.1,13.8-2,23.6,2.2c2.6,1,5.4,0.3,7.1-1.9c3-3.9,6.8-7.2,11.8-7.5c9.6-0.7,14.3,6.4,16.2,8.8c4.9-5,7-10.1,8.1-14
			C171.2,148.2,136.5,146.8,102.3,145.4z"/>
		<path class="st0" d="M102.3,133.5v7.6c2.3,0.4,4.3,0.9,6.3,0.9c5.7,0.4,11.4,0.8,17.1,0.8c22.3,0,44.5,0,66.8-0.1
			c3.9-0.1,7.8-0.5,11.7-1.1c3.2-0.5,3.3-0.9,1.5-4.7C171.3,140.1,137,137.8,102.3,133.5z"/>
		<path class="st0" d="M120,154.5c-3.2,0-6.3,1.3-8.6,3.6c-2.3,2.3-3.6,5.4-3.6,8.6c0,6.6,5.7,12.3,12.2,12.2
			c3.1-0.1,6.2-1.4,8.3-3.6c2.2-2.2,3.6-5.2,3.7-8.3C132.2,160.4,126.6,154.6,120,154.5z M124,170.6c-1,1.1-2.6,1.8-4.1,1.9
			c-1.6,0.1-3-0.5-4.3-1.5c-1.1-1-1.8-2.6-1.9-4.1c0-0.8,0.1-1.5,0.4-2.2c0.3-0.8,0.7-1.3,1.2-1.9c0.6-0.6,1.1-0.9,1.9-1.3
			c0.7-0.3,1.4-0.5,2.2-0.5c1.5-0.1,3,0.5,4.2,1.4c1.1,1,1.8,2.5,1.9,4C125.7,167.8,125.2,169.4,124,170.6z"/>
		<path class="st0" d="M191.1,158.2c-1.1-1.1-2.5-2.1-3.9-2.7c-1.4-0.7-3-0.9-4.6-0.9c-3.1,0.1-6.2,1.3-8.4,3.6
			c-2.3,2.3-3.5,5.3-3.6,8.4c0,3.2,1.1,6.3,3.3,8.5c2.2,2.3,5.2,3.7,8.3,3.8c6.5,0.2,12.2-5.3,12.2-12.1c0-1.6-0.3-3.2-0.9-4.6
			C193.1,160.7,192.3,159.3,191.1,158.2z M186.9,170.8c-1,1-2.6,1.7-4.1,1.8c-0.8,0-1.5-0.1-2.2-0.4c-0.7-0.3-1.3-0.7-1.9-1.2
			c-0.6-0.6-0.9-1.1-1.2-1.8s-0.5-1.4-0.5-2.2c-0.1-3.4,2.1-5.9,5.4-6c0.8,0,1.6,0.1,2.4,0.3c0.8,0.3,1.4,0.7,2.1,1.2
			c0.6,0.6,1,1.2,1.4,1.9c0.3,0.8,0.5,1.5,0.6,2.3C188.6,168.3,187.9,169.7,186.9,170.8z"/>
		<path class="st0" d="M208.2,146.5c-0.8,9.1-9.6,16.8-9.6,16.8c1.7,1.2,3,2.4,4.5,3.3c2.2,1.2,4.2,0.9,5.7-1c2.2-2.8,3.9-6,6.2-8.7
			C220,150.8,208.2,146.5,208.2,146.5z"/>
		<path class="st0" d="M155,99.4C155.1,99.4,155.1,99.4,155,99.4L155,99.4L155,99.4z"/>
		<path class="st0" d="M174.8,113.6c-0.1-0.2-0.3-0.3-0.5-0.3c-2.3,0-4.9,2.7-6.2,1.5c-1.3-1.3,0.2-3.7,3.1-4.4
			c-0.2-0.2-0.4-0.3-0.6-0.5c-1.4-1.4-2.9-2.3-4.6-4.3c-0.1-0.1-0.2-0.2-0.4-0.2c-3.1-0.7-6,2.3-7.9,0.5c-1.8-1.8,0.9-4.7,5.3-4.4
			c1.7,0.2-2.4-3.8-4.2-6.3c-0.1-0.2-0.4-0.3-0.6-0.3c-3.1,0.4-6.1,2.6-7.3,1.3c-1.3-1.3,0.1-3.4,2-4.5c0.5-0.3,1.4-0.5,2.3-0.6
			c0.5-0.1,0.7-0.5,0.5-0.9c-0.5-1.1-1.2-3-1.9-3.5s-4.7,0-7,1.2c-0.8,0.5-2-2.5,1-4.1c1.6-0.9,4.3-0.4,4.4-1.4
			c0.1-1.1-0.9-2.8-1-3.4c-1.7-4.1-5-1.6-6.3-2c-2-0.6-0.9-4.5,3.9-3.9c0.4,0,0.7-0.4,0.6-0.8c-0.2-0.9-0.3-2.3-0.2-3.4
			c0-0.6,0.6-8-4.1-9.2l0,0l0,0c-1.8-1-3.8-0.4-7.7,1.7c-0.3,0.1-0.4,0.4-0.4,0.7c0.9,4.6,2,9.5,2.7,14.4
			c3.9,26.5,25.7,43.4,37.1,45.2c5,0.9,10.2,0.9,15.3-0.1c0.7-0.1,0.8-1.1,0.1-1.3C187.3,119.1,176.9,115.9,174.8,113.6z"/>
	</g>
	<g>
		<path class="st1" d="M208.1,132.2c-0.2-7.2-2.7-9.2-8.8-7.6c-0.7,0.2-1.3,0.3-2.1,0.5c-20.8,5.4-39.3-1.9-50.8-20
			c-5.5-8.7-8.8-18.2-11-28.2c-1-4.6-1.9-9.4-2.7-14c-7.2,3.7-25.2-0.4-23.5,9.8c1.4,7.6,0.5,15.4-2.6,22.5
			c-1.3,3.1-2.7,6.2-4.1,9.3c-3.3,8.1-2.5,16.2-0.6,24.5C137.3,133.6,172.5,135.8,208.1,132.2z"/>
		<path class="st1" d="M102.3,145.4c-0.1,4.8-5.1,15.2,2.3,17.6c6.4-13.4,19-16.3,28.5-5.8c1.3,1.5,3.4,2,5.3,1.3
			c8.2-3.1,13.8-2,23.6,2.2c2.6,1,5.4,0.3,7.1-1.9c3-3.9,6.8-7.2,11.8-7.5c9.6-0.7,14.3,6.4,16.2,8.8c4.9-5,7-10.1,8.1-14
			C171.2,148.2,136.5,146.8,102.3,145.4z"/>
		<path class="st1" d="M102.3,133.5v7.6c2.3,0.4,4.3,0.9,6.3,0.9c5.7,0.4,11.4,0.8,17.1,0.8c22.3,0,44.5,0,66.8-0.1
			c3.9-0.1,7.8-0.5,11.7-1.1c3.2-0.5,3.3-0.9,1.5-4.7C171.3,140.1,137,137.8,102.3,133.5z"/>
		<path class="st1" d="M120,154.5c-3.2,0-6.3,1.3-8.6,3.6c-2.3,2.3-3.6,5.4-3.6,8.6c0,6.6,5.7,12.3,12.2,12.2
			c3.1-0.1,6.2-1.4,8.3-3.6c2.2-2.2,3.6-5.2,3.7-8.3C132.2,160.4,126.6,154.6,120,154.5z M124,170.6c-1,1.1-2.6,1.8-4.1,1.9
			c-1.6,0.1-3-0.5-4.3-1.5c-1.1-1-1.8-2.6-1.9-4.1c0-0.8,0.1-1.5,0.4-2.2c0.3-0.8,0.7-1.3,1.2-1.9c0.6-0.6,1.1-0.9,1.9-1.3
			c0.7-0.3,1.4-0.5,2.2-0.5c1.5-0.1,3,0.5,4.2,1.4c1.1,1,1.8,2.5,1.9,4C125.7,167.8,125.2,169.4,124,170.6z"/>
		<path class="st1" d="M191.1,158.2c-1.1-1.1-2.5-2.1-3.9-2.7c-1.4-0.7-3-0.9-4.6-0.9c-3.1,0.1-6.2,1.3-8.4,3.6
			c-2.3,2.3-3.5,5.3-3.6,8.4c0,3.2,1.1,6.3,3.3,8.5c2.2,2.3,5.2,3.7,8.3,3.8c6.5,0.2,12.2-5.3,12.2-12.1c0-1.6-0.3-3.2-0.9-4.6
			C193.1,160.7,192.3,159.3,191.1,158.2z M186.9,170.8c-1,1-2.6,1.7-4.1,1.8c-0.8,0-1.5-0.1-2.2-0.4c-0.7-0.3-1.3-0.7-1.9-1.2
			c-0.6-0.6-0.9-1.1-1.2-1.8s-0.5-1.4-0.5-2.2c-0.1-3.4,2.1-5.9,5.4-6c0.8,0,1.6,0.1,2.4,0.3c0.8,0.3,1.4,0.7,2.1,1.2
			c0.6,0.6,1,1.2,1.4,1.9c0.3,0.8,0.5,1.5,0.6,2.3C188.6,168.3,187.9,169.7,186.9,170.8z"/>
		<path class="st1" d="M208.2,146.5c-0.8,9.1-9.6,16.8-9.6,16.8c1.7,1.2,3,2.4,4.5,3.3c2.2,1.2,4.2,0.9,5.7-1c2.2-2.8,3.9-6,6.2-8.7
			C220,150.8,208.2,146.5,208.2,146.5z"/>
		<path class="st1" d="M155,99.4C155.1,99.4,155.1,99.4,155,99.4L155,99.4L155,99.4z"/>
		<path class="st1" d="M174.8,113.6c-0.1-0.2-0.3-0.3-0.5-0.3c-2.3,0-4.9,2.7-6.2,1.5c-1.3-1.3,0.2-3.7,3.1-4.4
			c-0.2-0.2-0.4-0.3-0.6-0.5c-1.4-1.4-2.9-2.3-4.6-4.3c-0.1-0.1-0.2-0.2-0.4-0.2c-3.1-0.7-6,2.3-7.9,0.5c-1.8-1.8,0.9-4.7,5.3-4.4
			c1.7,0.2-2.4-3.8-4.2-6.3c-0.1-0.2-0.4-0.3-0.6-0.3c-3.1,0.4-6.1,2.6-7.3,1.3c-1.3-1.3,0.1-3.4,2-4.5c0.5-0.3,1.4-0.5,2.3-0.6
			c0.5-0.1,0.7-0.5,0.5-0.9c-0.5-1.1-1.2-3-1.9-3.5s-4.7,0-7,1.2c-0.8,0.5-2-2.5,1-4.1c1.6-0.9,4.3-0.4,4.4-1.4
			c0.1-1.1-0.9-2.8-1-3.4c-1.7-4.1-5-1.6-6.3-2c-2-0.6-0.9-4.5,3.9-3.9c0.4,0,0.7-0.4,0.6-0.8c-0.2-0.9-0.3-2.3-0.2-3.4
			c0-0.6,0.6-8-4.1-9.2l0,0l0,0c-1.8-1-3.8-0.4-7.7,1.7c-0.3,0.1-0.4,0.4-0.4,0.7c0.9,4.6,2,9.5,2.7,14.4
			c3.9,26.5,25.7,43.4,37.1,45.2c5,0.9,10.2,0.9,15.3-0.1c0.7-0.1,0.8-1.1,0.1-1.3C187.3,119.1,176.9,115.9,174.8,113.6z"/>
	</g>
</g>
<g>
	<path class="st1" d="M131.6,244.5c-0.6,1.1-1.6,2.1-2.9,2.8c-1.3,0.7-3,1-5,1h-4.1v9.4h-4.9v-24.4h9c1.9,0,3.5,0.3,4.8,1
		c1.3,0.7,2.3,1.6,3,2.7c0.7,1.1,1,2.4,1,3.9C132.6,242.2,132.3,243.4,131.6,244.5z M126.5,243.5c0.7-0.6,1-1.5,1-2.6
		c0-2.4-1.3-3.6-4-3.6h-3.9v7.1h3.9C124.9,244.4,125.9,244.1,126.5,243.5z"/>
	<path class="st1" d="M135.9,242.8c0.8-1.5,1.8-2.7,3.2-3.5c1.3-0.8,2.8-1.2,4.5-1.2c1.4,0,2.7,0.3,3.8,0.9c1.1,0.6,2,1.3,2.6,2.2
		v-2.8h4.9v19.4H150v-2.8c-0.6,0.9-1.5,1.7-2.6,2.3s-2.4,0.9-3.8,0.9c-1.6,0-3.1-0.4-4.5-1.3c-1.3-0.8-2.4-2-3.2-3.6
		c-0.8-1.5-1.2-3.3-1.2-5.3C134.8,246,135.2,244.4,135.9,242.8z M149.3,245c-0.5-0.9-1.1-1.5-1.9-2c-0.8-0.5-1.6-0.7-2.6-0.7
		s-1.8,0.2-2.5,0.7c-0.8,0.4-1.4,1.1-1.9,1.9c-0.5,0.9-0.7,1.9-0.7,3s0.2,2.2,0.7,3.1s1.1,1.5,1.9,2c0.8,0.5,1.6,0.7,2.5,0.7
		s1.8-0.2,2.6-0.7s1.4-1.1,1.9-2s0.7-1.9,0.7-3.1C150,246.9,149.8,245.9,149.3,245z"/>
	<path class="st1" d="M165.5,242.4v9.4c0,0.7,0.2,1.1,0.5,1.4c0.3,0.3,0.8,0.4,1.6,0.4h2.3v4.1h-3.1c-4.1,0-6.2-2-6.2-6v-9.3h-2.3
		v-4h2.3v-4.8h4.9v4.8h4.3v4H165.5L165.5,242.4z"/>
	<path class="st1" d="M179.8,233.4l-8.1,3.7v-3.5l8.1-4.2V233.4z M178.4,238.4v19.4h-4.9v-19.4H178.4z"/>
	<path class="st1" d="M199.8,240.2c1.4,1.5,2.1,3.5,2.1,6.1v11.4H197V247c0-1.5-0.4-2.7-1.2-3.6c-0.8-0.8-1.8-1.2-3.2-1.2
		s-2.4,0.4-3.2,1.2c-0.8,0.8-1.2,2-1.2,3.6v10.7h-4.9v-19.4h4.9v2.4c0.7-0.8,1.5-1.5,2.5-2s2.1-0.7,3.3-0.7
		C196.5,238,198.4,238.9,199.8,240.2z"/>
</g>
</svg>
