<?xml version="1.0" encoding="utf-8"?>
<!-- Generator: Adobe Illustrator 25.2.1, SVG Export Plug-In . SVG Version: 6.00 Build 0)  -->
<svg version="1.1" id="Capa_1" xmlns="http://www.w3.org/2000/svg" xmlns:xlink="http://www.w3.org/1999/xlink" x="0px" y="0px"
	 viewBox="0 0 317 331" style="enable-background:new 0 0 317 331;" xml:space="preserve">
<style type="text/css">
	.st0{fill:#0B9649;}
</style>
<g>
	<path class="st0" d="M180.4,47.4c7.3,0,22.1-2.4,26.7,2.8c8.7,11.9,17.4,23.8,26.3,35.5c1.6,2.1,3.3,4.3,5.2,6.7
		c-6.8,7.2-14.9,12.5-24,16.9l-8.6-10l-1,0.3l-2.5,30.7l-88,1.3C115.6,126.5,182.8,65,180.4,47.4z"/>
	<path class="st0" d="M112.5,99.4l-8.6,10.1c0,0-25.4-10.2-25.4-14.7l11.9-16.1c6.8-9.2,13.7-18.3,20.4-27.6
		c4.8-5.3,27.6-4.3,27.6-4.3c-1.1,5.3,9,18.1,15,24.9c2.5,2.9,2.5,7.1,0.3,10.1c-11.3,14.3-30.7,34.4-39.1,42L114,100L112.5,99.4z"
		/>
	<path class="st0" d="M187.3,159.7l-6.7-12.1h22.6c5.2,22,6.3,43,6.3,43c-24-15.9-84.3,17.6-100,1.9c-4.8-8.7,3.8-37.5,4.8-44.9
		h23.5l-6.6,11.9c5.4,3.5,11.3,5.7,16.9,7.7c0.9,0.4,3-1.3,3.9-2.5c2.3-3.3,4.3-6.8,7.1-11.3c2,3.3,3.5,5.8,5.2,8.3
		c3.5,5.4,2.5,7.6,10.7,3.5C178.9,163.5,182.8,161.8,187.3,159.7z"/>
	<path class="st0" d="M154.7,136.2c0.6-0.3,1.1-0.5,1.8-0.6c10-0.9,10-0.9,15.2,7.7c2.8,4.7,5.6,9.4,8.7,14.4l-9.7,4.6L154.7,136.2z
		"/>
	<path class="st0" d="M147.8,162.2l-9.9-4.6l12-19.6c2.4,3.9,4.3,7,6.3,10.2L147.8,162.2z"/>
	<path class="st0" d="M144.5,135.4c-2.5,7-2.5,7-8.1,7c-7.3,0-13.4,0-21.1,0c-0.1-2.4-0.3-4.2-0.4-6.8
		C125.4,135.3,134.1,135.4,144.5,135.4z"/>
	<path class="st0" d="M173.9,135.8h29.2c0.1,2,0.1,3.9,0.3,6.3c-3.4,0.1-5.2,0.3-8.2,0.3c-4.3,0-8.6,0-12.8,0
		C176.5,142.4,176.5,142.4,173.9,135.8z"/>
</g>
<g>
	<path class="st0" d="M74,230.9v4h-6.5v20.5h-4.9v-20.5h-6.5v-4H74z"/>
	<path class="st0" d="M77.5,240.4c0.8-1.5,1.8-2.7,3.2-3.5c1.3-0.8,2.8-1.2,4.5-1.2c1.4,0,2.7,0.3,3.8,0.9c1.1,0.6,2,1.3,2.6,2.2
		v-2.8h4.9v19.4h-4.9v-2.8c-0.6,0.9-1.5,1.7-2.6,2.3s-2.4,0.9-3.8,0.9c-1.6,0-3.1-0.4-4.5-1.3c-1.3-0.8-2.4-2-3.2-3.6
		c-0.8-1.5-1.2-3.3-1.2-5.3C76.3,243.5,76.7,241.9,77.5,240.4z M90.9,242.5c-0.5-0.9-1.1-1.5-1.9-2s-1.6-0.7-2.6-0.7
		s-1.8,0.2-2.5,0.7c-0.8,0.4-1.4,1.1-1.9,1.9c-0.5,0.9-0.7,1.9-0.7,3s0.2,2.2,0.7,3.1s1.1,1.5,1.9,2s1.6,0.7,2.5,0.7
		s1.8-0.2,2.6-0.7c0.8-0.5,1.4-1.1,1.9-2s0.7-1.9,0.7-3.1C91.6,244.4,91.4,243.4,90.9,242.5z"/>
	<path class="st0" d="M119.2,247H105c0.1,1.4,0.6,2.5,1.5,3.3c0.9,0.8,1.9,1.2,3.2,1.2c1.8,0,3.1-0.8,3.9-2.3h5.3
		c-0.6,1.9-1.6,3.4-3.2,4.6c-1.6,1.2-3.5,1.8-5.8,1.8c-1.9,0-3.5-0.4-5-1.2c-1.5-0.8-2.6-2-3.5-3.5c-0.8-1.5-1.2-3.3-1.2-5.2
		c0-2,0.4-3.8,1.2-5.3c0.8-1.5,2-2.7,3.4-3.5c1.5-0.8,3.2-1.2,5.1-1.2c1.8,0,3.5,0.4,5,1.2c1.5,0.8,2.6,1.9,3.4,3.4s1.2,3.1,1.2,5
		C119.4,245.9,119.3,246.5,119.2,247z M114.3,243.8c0-1.3-0.5-2.3-1.4-3c-0.9-0.8-2-1.1-3.3-1.1c-1.2,0-2.2,0.4-3.1,1.1
		c-0.8,0.7-1.3,1.8-1.5,3.1h9.3V243.8z"/>
	<path class="st0" d="M134.4,255.4l-6.6-8.3v8.3h-4.9v-25.9h4.9v14.7l6.5-8.2h6.4l-8.5,9.7l8.6,9.7H134.4z"/>
	<path class="st0" d="M170.2,235.9l-5.7,19.4h-5.3l-3.5-13.5l-3.5,13.5h-5.3l-5.7-19.4h5l3.4,14.8l3.7-14.8h5.2l3.6,14.7l3.4-14.7
		H170.2z"/>
	<path class="st0" d="M176.5,254.4c-1.5-0.8-2.7-2-3.5-3.5c-0.9-1.5-1.3-3.3-1.3-5.2c0-2,0.4-3.7,1.3-5.2c0.9-1.5,2.1-2.7,3.6-3.5
		c1.5-0.8,3.2-1.2,5.1-1.2c1.9,0,3.6,0.4,5.1,1.2c1.5,0.8,2.7,2,3.6,3.5c0.9,1.5,1.3,3.3,1.3,5.2c0,2-0.4,3.7-1.3,5.2
		c-0.9,1.5-2.1,2.7-3.6,3.5c-1.5,0.8-3.2,1.2-5.1,1.2C179.6,255.6,178,255.2,176.5,254.4z M184,250.8c0.8-0.4,1.4-1.1,1.9-1.9
		c0.5-0.9,0.7-1.9,0.7-3.2c0-1.8-0.5-3.3-1.5-4.3s-2.2-1.5-3.6-1.5c-1.4,0-2.6,0.5-3.5,1.5s-1.4,2.4-1.4,4.3c0,1.8,0.5,3.3,1.4,4.3
		s2.1,1.5,3.5,1.5C182.4,251.4,183.2,251.1,184,250.8z"/>
	<path class="st0" d="M211.6,237.9c1.4,1.5,2.1,3.5,2.1,6.1v11.4h-4.9v-10.7c0-1.5-0.4-2.7-1.2-3.6c-0.8-0.8-1.8-1.2-3.1-1.2
		c-1.4,0-2.4,0.4-3.2,1.2c-0.8,0.8-1.2,2-1.2,3.6v10.7h-4.9V236h4.9v2.4c0.7-0.8,1.5-1.5,2.5-2s2.1-0.7,3.3-0.7
		C208.3,235.6,210.2,236.4,211.6,237.9z"/>
	<path class="st0" d="M218.3,240.4c0.8-1.5,1.8-2.7,3.2-3.5c1.4-0.8,2.9-1.2,4.5-1.2c1.3,0,2.5,0.3,3.6,0.8s2.1,1.3,2.7,2.2v-9.2h5
		v25.9h-5v-2.9c-0.6,1-1.5,1.7-2.6,2.3s-2.4,0.9-3.8,0.9c-1.6,0-3.1-0.4-4.5-1.3c-1.4-0.8-2.4-2-3.2-3.6c-0.8-1.5-1.2-3.3-1.2-5.3
		C217.1,243.5,217.5,241.9,218.3,240.4z M231.7,242.5c-0.5-0.9-1.1-1.5-1.9-2c-0.8-0.5-1.6-0.7-2.6-0.7c-0.9,0-1.8,0.2-2.5,0.7
		c-0.8,0.4-1.4,1.1-1.9,1.9c-0.5,0.9-0.7,1.9-0.7,3s0.2,2.2,0.7,3.1s1.1,1.5,1.9,2c0.8,0.5,1.6,0.7,2.5,0.7s1.8-0.2,2.6-0.7
		s1.4-1.1,1.9-2s0.7-1.9,0.7-3.1C232.4,244.4,232.1,243.4,231.7,242.5z"/>
	<path class="st0" d="M245.7,254.4c-1.5-0.8-2.7-2-3.5-3.5c-0.9-1.5-1.3-3.3-1.3-5.2c0-2,0.4-3.7,1.3-5.2c0.9-1.5,2.1-2.7,3.6-3.5
		c1.5-0.8,3.2-1.2,5.1-1.2c1.9,0,3.6,0.4,5.1,1.2c1.5,0.8,2.7,2,3.6,3.5s1.3,3.3,1.3,5.2c0,2-0.4,3.7-1.3,5.2s-2.1,2.7-3.6,3.5
		c-1.5,0.8-3.2,1.2-5.1,1.2C248.8,255.6,247.2,255.2,245.7,254.4z M253.2,250.8c0.8-0.4,1.4-1.1,1.9-1.9c0.5-0.9,0.7-1.9,0.7-3.2
		c0-1.8-0.5-3.3-1.5-4.3s-2.2-1.5-3.6-1.5c-1.4,0-2.6,0.5-3.5,1.5s-1.4,2.4-1.4,4.3c0,1.8,0.5,3.3,1.4,4.3s2.1,1.5,3.5,1.5
		C251.6,251.4,252.4,251.1,253.2,250.8z"/>
</g>
</svg>
