<?xml version="1.0" encoding="utf-8"?>
<!-- Generator: Adobe Illustrator 25.2.1, SVG Export Plug-In . SVG Version: 6.00 Build 0)  -->
<svg version="1.1" id="Capa_1" xmlns="http://www.w3.org/2000/svg" xmlns:xlink="http://www.w3.org/1999/xlink" x="0px" y="0px"
	 viewBox="0 0 317 331" style="enable-background:new 0 0 317 331;" xml:space="preserve">
<style type="text/css">
	.st0{fill:#0B9649;}
</style>
<g>
	<g>
		<path class="st0" d="M142.7,69.9c2.5-0.9,4-3,4.5-6.4c1-6.4,4.5-11.2,6.4-13.4c-2.6-1.5-5.7-2.4-8.8-2.5c-2.6,0.1-5.7,1.1-8.9,3.3
			c-1.3,0.9-2.8,4.3-3.1,8.8c-0.3,3.8,0.5,6.9,2,8.4C136.9,70.1,140.2,70.8,142.7,69.9z"/>
		<path class="st0" d="M155.8,51.5c-1.6,1.9-5.2,6.4-6,12.4c-0.6,4.3-2.9,7.3-6.2,8.4c-1,0.4-2,0.5-3.1,0.5c-2.6,0-5.4-1-7.4-2.9
			c-4.8-4.8-1.1-14.6,0.1-16.8c-3.5,3.3-5.9,9.4-5.7,13.9c0.8,11.4,8.3,17.2,18.3,17.2c0.1,0,0.1,0,0.3,0c9.3,0,16.5-7.4,17-17.6
			C163.3,60.5,160.4,55,155.8,51.5z"/>
	</g>
	<path class="st0" d="M165.6,56.4c1.4,2.8,2.3,6,2.4,9.3c3.3-1.8,6.7-3.1,9.9-3.9l0.2,0.1l-1.3,1c-2.4,2-4.8,4.1-7.6,6.7l-0.7,0.6
		c0,0-0.8-0.5-0.9-0.6c-1.5,9.1-8,16.5-17,19.4c-1,1.1-2,2.4-3,3.7l-0.6,0.8l-0.9-0.5c-0.7-0.3-1.4-0.8-2.1-1.3
		c-0.5-0.3-1-0.7-1.5-0.9c0.2-0.6,0.5-1,0.7-1.6c-0.1-0.1-0.3-0.2-0.5-0.3c-3.4-0.5-6.5-1.6-9.3-3.3c-6,12.1-3.6,25.1-2.9,37.9
		c-1.3,11.7-6.8,25.6-18.8,30.3c-9,8.3-15.6,16.6-24.2,25.4c-8.7,8.7,4.8,22.7,13.3,13c9.5-10.2,20.8-19.2,28-31.2
		c0.6-0.6,16.4-10.6,22.3-12.3c10-3.3,20.9,0.1,31-3c21.9-4.4,38.3-23.3,41.2-45.5C228.3,66.8,196.6,41.2,165.6,56.4z M214.8,89.8
		c-0.1-0.8-0.2-1.5-0.3-2.3c-1.6-2-3.4-4-5.4-6.1l-0.8-0.9l1.5-1.4c0.6-0.5,1-0.9,1.6-1.4c-0.7-1.5-1.6-2.9-2.4-4.2
		c-1,0.9-2.2,1.8-3.2,2.9l-0.8,0.8l-0.8-0.8c-1.5-1.4-2.9-2.8-4.4-4l-1-0.9l1.1-0.9c1.4-1,2.5-2,3.8-2.9c-1.3-1.1-2.6-2.1-4.1-3
		c-1.3,0.9-2.5,2-3.8,3l-0.8,0.6l-0.8-0.6c-2.4-2-4.6-3.7-6.8-5.2l-1.4-0.9l0.8-0.7C202,61.7,213.3,74.2,214.8,89.8z M187.1,129.5
		l-0.6-0.7l0.6-0.7c1.7-2.2,3.2-4.2,4.8-6.2l1-1.3l0.9,1.3c1.5,2.1,2.8,4,4,6c-2.5,2.2-5.2,3.9-7.9,5.4
		C189.1,132,188.1,130.8,187.1,129.5z M179.9,129.9c-1.8,2.6-3.7,5.3-5.4,7.9c-0.8,0.1-1.6,0.1-2.4,0.1c-1.5-1.8-3.1-3.8-4.7-5.6
		l-0.6-0.7l0.5-0.8c1.7-2.8,3.4-5.6,5.3-8.4l0.8-1.3l1,1.1c2,2.1,3.7,4,5.4,6.1l0.6,0.7L179.9,129.9z M162.2,126.8
		c-2.2-2.2-4.4-4.4-6.7-6.4l-0.8-0.7l0.6-0.9c1.7-2.4,3.4-4.9,5.4-7.6l0.8-1l1,0.8c2.3,2,4.5,4,6.7,6l0.7,0.7l-0.6,0.8
		c-1.8,2.6-3.6,5.3-5.3,8l-0.8,1.3L162.2,126.8z M189.2,91.2l0.9,0.8l-0.8,0.9c-2.2,2.4-4,4.6-5.9,6.8l-0.8,1l-0.9-0.9
		c-2-2-3.8-3.7-5.6-5.3l-0.9-0.8l0.8-0.9c1.7-2,3.7-3.9,6-6.3l0.8-0.8l0.8,0.7C185.5,88,187.3,89.6,189.2,91.2z M186.2,82.3l1-0.9
		c2.2-2.1,4.4-4,6.8-6.1l0.8-0.7l0.8,0.7c1.6,1.4,3.2,2.9,4.7,4.4l0.9,0.8l-0.9,0.8c-2.2,2.1-4.1,4.1-6.1,6.2l-0.8,0.8l-0.9-0.8
		c-1.6-1.4-3.3-2.9-5.3-4.5L186.2,82.3z M178.7,103.9l0.7,0.7l-0.7,0.8c-1.6,2.2-3.4,4.5-5.2,7l-0.8,1.1l-1-0.9
		c-2.1-2-4.2-3.8-6.3-5.6l-0.9-0.7l0.7-0.9c1.8-2.4,3.8-4.7,5.7-7l0.8-0.9l0.9,0.8C174.9,100.1,176.9,102.1,178.7,103.9z M177,117.7
		l-0.7-0.7l0.6-0.8c1.8-2.5,3.4-4.8,5.1-6.9l0.9-1.1l1,1c2,2.2,3.9,4.5,5.6,6.7l0.6,0.8l-0.6,0.7c-1.8,2.3-3.6,4.4-5.1,6.3l-0.9,1.1
		l-1-1.1C180.7,121.6,178.8,119.6,177,117.7z M193.3,112.8l-0.9-1.1c-1.7-2.2-3.7-4.4-5.7-6.7l-0.7-0.8l0.7-0.8c2-2.4,4-4.8,6.1-7.1
		l0.8-0.9l0.9,0.9c2.1,2.1,4.1,4.1,6.3,6.5l0.7,0.8l-0.8,0.8c-2.2,2.3-4.4,4.7-6.5,7.2L193.3,112.8z M197.9,92.4l-0.8-0.8l0.8-0.8
		c1.8-2,3.9-4,6-6l0.9-0.8l0.8,0.9c2.2,2.3,4.4,4.8,6.3,7.2l0.7,0.9l-0.8,0.8c-1.8,1.7-3.8,3.4-5.6,5.4l-0.9,0.9l-0.8-0.9
		C202.3,96.8,200.1,94.6,197.9,92.4z M209,102.9c1.8-1.8,3.7-3.6,5.4-5.2l0.3-0.3c-0.3,3.6-1.3,7.2-2.8,10.9c-1-1.3-2.1-2.6-3.1-3.9
		l-0.7-0.8L209,102.9z M214.9,90.4c0,0.5,0.1,0.9,0.1,1.4C214.9,91.3,214.9,90.8,214.9,90.4z M173.9,71.7c2.5-2.3,5.1-4.5,7.6-6.4
		l0.7-0.6l0.8,0.6c2.6,2,4.9,3.7,7.1,5.4l1.1,0.9l-1,0.9c-2.2,2-4.6,4-6.9,6.3l-0.7,0.7l-0.8-0.6c-2.3-1.7-4.8-3.4-7.5-5.2l-1.3-0.8
		L173.9,71.7z M163,82.4c1.8-2,3.7-3.8,5.4-5.5l0.7-0.7l0.8,0.6c2.5,1.6,5.2,3.4,7.8,5.3l1.1,0.8l-1,1c-1.8,1.8-3.7,3.8-5.6,5.9
		l-0.8,0.8l-0.9-0.7c-2.6-2.1-5.1-3.9-7.5-5.6l-1.1-0.8L163,82.4z M151.9,95.1c2-2.4,4-4.9,6.1-7.2l0.7-0.8l0.9,0.7
		c2.5,1.8,5.2,3.8,7.6,5.9l0.9,0.8l-0.8,0.9c-1.8,2.1-3.7,4.4-5.9,7l-0.7,0.9l-0.9-0.7c-2.4-1.8-5.1-3.8-7.7-5.6l-1-0.7L151.9,95.1z
		 M147.4,100.9l0.7-0.9l0.9,0.7c2.8,2,5.4,3.8,7.9,5.7l0.9,0.7l-0.7,0.9c-1.8,2.4-3.6,4.8-5.3,7.3l-0.8,1l-1-0.8
		c-2.5-2.1-5.1-4-7.7-5.9l-0.9-0.7l0.7-0.9C144.1,105.5,145.8,103.1,147.4,100.9z M147.7,121.5c-0.8,1.3-1.7,2.6-2.5,4
		c-2.5-3.3-4.4-7.1-5.4-11.5c2.6,2,5.3,4,7.7,6l0.8,0.7L147.7,121.5z M142.9,96.7l1.1,0.7l-0.8,1c-1.4,1.8-2.8,3.7-4,5.5
		c0.2-2.8,0.8-5.5,1.7-8.5C141.7,95.9,142.3,96.2,142.9,96.7z M129.7,152.6c-3.3,2.1-4.1-0.6-3.6-1.8l10.3-20.1
		c0.9,7,10.2,11.6,10.2,11.6L129.7,152.6z M148.7,129.2c0.9-1.5,1.7-2.9,2.6-4.1l0.8-1.3l1,0.9c2.4,2.2,4.7,4.5,7,6.8l0.6,0.7
		l-0.5,0.8c-0.5,0.8-0.9,1.6-1.4,2.4C155,134,151.5,131.8,148.7,129.2z M163.5,136.9l0.5-0.9l1,1.3C164.5,137.1,164,137,163.5,136.9
		z M181,136.6c0.6-0.8,1-1.5,1.6-2.3l0.9-1.4l1,1.4c0.2,0.3,0.5,0.7,0.7,1C183.9,135.8,182.4,136.3,181,136.6z M202.6,123.2
		c-0.3,0.3-0.7,0.8-1,1.1c-1.5-2.3-3.1-4.7-4.7-7l-0.6-0.8l0.6-0.7c2.4-2.8,4.7-5.4,6.9-7.7l0.9-1l0.9,1c1.4,1.7,2.8,3.4,4,5.2
		C207.8,116.8,205.5,120,202.6,123.2z"/>
</g>
<g>
	<path class="st0" d="M126.6,230.5v4h-6.5v20.4h-4.9v-20.5h-6.5v-4h17.9V230.5z"/>
	<path class="st0" d="M148.1,246.7h-14.2c0.1,1.4,0.6,2.5,1.5,3.3s1.9,1.2,3.2,1.2c1.8,0,3.1-0.8,3.9-2.3h5.3
		c-0.6,1.9-1.6,3.4-3.2,4.6c-1.6,1.2-3.5,1.8-5.8,1.8c-1.9,0-3.5-0.4-5-1.2s-2.6-2-3.5-3.5c-0.8-1.5-1.2-3.3-1.2-5.2
		c0-2,0.4-3.8,1.2-5.3s2-2.7,3.4-3.5c1.5-0.8,3.2-1.2,5.1-1.2c1.8,0,3.5,0.4,5,1.2s2.6,1.9,3.4,3.4c0.8,1.5,1.2,3.1,1.2,5
		C148.2,245.5,148.2,246.1,148.1,246.7z M143.1,243.4c0-1.3-0.5-2.3-1.4-3c-0.9-0.8-2-1.1-3.3-1.1c-1.2,0-2.2,0.4-3.1,1.1
		c-0.8,0.7-1.3,1.8-1.5,3.1h9.3V243.4z"/>
	<path class="st0" d="M168.1,237.4c1.4,1.5,2.1,3.5,2.1,6.1v11.4h-4.9v-10.7c0-1.5-0.4-2.7-1.2-3.6c-0.8-0.8-1.8-1.2-3.1-1.2
		c-1.4,0-2.4,0.4-3.2,1.2s-1.2,2-1.2,3.6v10.7h-4.9v-19.4h4.9v2.4c0.7-0.8,1.5-1.5,2.5-2s2.1-0.7,3.3-0.7
		C164.8,235.2,166.7,236,168.1,237.4z"/>
	<path class="st0" d="M175.2,232.4c-0.6-0.5-0.9-1.2-0.9-2s0.3-1.5,0.9-2c0.6-0.5,1.3-0.8,2.2-0.8s1.6,0.3,2.2,0.8
		c0.6,0.5,0.9,1.2,0.9,2s-0.3,1.5-0.9,2c-0.6,0.5-1.3,0.8-2.2,0.8S175.8,232.9,175.2,232.4z M179.8,235.5v19.4h-4.9v-19.4H179.8z"/>
	<path class="st0" d="M187.8,254.4c-1.3-0.6-2.3-1.3-3-2.3s-1.1-2.1-1.2-3.3h4.9c0.1,0.7,0.5,1.4,1.1,1.9s1.4,0.7,2.4,0.7
		c0.9,0,1.7-0.2,2.2-0.6c0.5-0.4,0.8-0.9,0.8-1.4c0-0.6-0.3-1.1-1-1.4c-0.6-0.3-1.7-0.7-3.1-1c-1.4-0.3-2.6-0.7-3.6-1.1
		c-0.9-0.4-1.7-0.9-2.4-1.7s-1-1.8-1-3.1c0-1.1,0.3-2.1,0.9-2.9s1.5-1.6,2.7-2.1s2.5-0.8,4.1-0.8c2.3,0,4.2,0.6,5.5,1.7
		s2.1,2.7,2.3,4.7h-4.7c-0.1-0.8-0.4-1.4-1-1.8c-0.6-0.5-1.3-0.7-2.3-0.7c-0.9,0-1.6,0.2-2,0.5c-0.5,0.3-0.7,0.8-0.7,1.4
		c0,0.7,0.3,1.1,1,1.5c0.7,0.3,1.7,0.7,3,1c1.4,0.4,2.6,0.7,3.5,1.1c0.9,0.4,1.7,1,2.4,1.7c0.7,0.8,1,1.8,1,3.1c0,1.1-0.3,2.1-0.9,3
		s-1.5,1.6-2.7,2.1s-2.5,0.8-4,0.8C190.5,255.2,189.1,254.9,187.8,254.4z"/>
</g>
</svg>
