<svg width="95" height="100" viewBox="0 0 95 100" fill="none" xmlns="http://www.w3.org/2000/svg">
<path d="M89.0025 0H6.08863C4.74003 0 3.44138 0.599541 2.44241 1.59877C1.4934 2.64797 0.94397 3.99693 0.94397 5.44581V93.628C0.94397 94.3275 1.09382 95.0769 1.34356 95.7264C1.5933 96.3759 1.99288 96.9754 2.44241 97.525C2.94189 98.0246 3.49133 98.4243 4.0907 98.7241C4.74003 98.9739 5.38935 99.1238 6.03868 99.1238H50.6923V60.8032H38.6049V45.7648H50.6923V34.7233C50.6923 21.9331 58.0846 14.9385 68.7735 14.9385C72.4197 14.9385 76.016 15.1384 79.6123 15.5381V28.9278H72.2199C66.376 28.9278 65.2272 31.8755 65.2272 36.2221V45.7648H79.2127L77.3646 60.8032H65.2272V99.1238H88.9526C89.6518 99.1238 90.3012 98.9739 90.9006 98.7241C91.4999 98.4743 92.0993 98.0246 92.5488 97.525C93.0483 97.0254 93.398 96.4258 93.6477 95.7264C93.8974 95.0769 94.0473 94.3275 94.0473 93.628V5.44581C94.0473 3.99693 93.4978 2.598 92.5488 1.59877C91.6997 0.54958 90.4011 0 89.0025 0Z" fill="#4F4F4F"/>
</svg>
