<svg width="100" height="100" viewBox="0 0 100 100" fill="none" xmlns="http://www.w3.org/2000/svg">
<path d="M99.5966 29.4274C99.4967 25.2806 98.7475 21.1837 97.249 17.2867C95.9504 13.9892 94.0024 10.9416 91.455 8.44351C88.9576 5.94543 85.9108 3.94697 82.6142 2.64796C78.7183 1.19908 74.6225 0.399692 70.4768 0.299769C65.1823 0.0499608 63.4841 0 49.9481 0C36.3622 0 34.664 0.0499608 29.3695 0.299769C25.2238 0.399692 21.1281 1.14912 17.2321 2.64796C13.9355 3.94697 10.8887 5.89547 8.39128 8.39355C5.89387 10.8916 3.89595 13.9393 2.64725 17.2367C1.19875 21.1337 0.399588 25.2306 0.299692 29.3774C0.0499512 34.7233 0 36.422 0 50.0115C0 63.6011 0.0499512 65.2998 0.299692 70.5957C0.399588 74.7425 1.1488 78.8394 2.64725 82.7364C3.9459 86.0338 5.89387 89.0815 8.39128 91.5795C10.8887 94.0776 13.9355 96.0761 17.2321 97.3251C21.1281 98.774 25.2238 99.5734 29.3695 99.6733C34.714 99.9231 36.4122 99.9731 49.9481 99.9731C63.4841 99.9731 65.1823 99.9231 70.5268 99.6733C74.6725 99.5734 78.7682 98.824 82.6142 97.3251C85.9108 96.0261 88.9576 94.0776 91.455 91.5795C93.9524 89.0815 95.9504 86.0338 97.1991 82.7364C98.6476 78.8394 99.4467 74.7425 99.5466 70.5957C99.7964 65.2498 99.8463 63.5511 99.8463 50.0115C99.8463 36.4719 99.8463 34.7233 99.5966 29.4274ZM49.9481 75.6918C44.8534 75.6918 39.9086 74.1929 35.663 71.3451C31.4174 68.5473 28.1708 64.5004 26.2228 59.804C24.2748 55.1076 23.7753 49.9616 24.7743 44.9654C25.7732 39.9693 28.2207 35.4227 31.817 31.8255C35.4132 28.2283 39.9585 25.7802 44.9533 24.7809C49.9481 23.7817 55.0928 24.2813 59.7879 26.2298C64.4831 28.1783 68.4789 31.4758 71.3259 35.6726C74.123 39.9193 75.6714 44.8655 75.6714 49.9616C75.6714 56.7563 72.9742 63.3013 68.1293 68.0976C63.2843 72.9439 56.7411 75.6918 49.9481 75.6918ZM76.6205 29.2775C75.4217 29.2775 74.2729 28.9278 73.2739 28.2782C72.275 27.6287 71.5257 26.6795 71.0762 25.5803C70.6267 24.4812 70.5268 23.2821 70.7266 22.133C70.9763 20.9839 71.5258 19.8847 72.3749 19.0853C73.224 18.236 74.2729 17.6864 75.4217 17.4366C76.5705 17.1868 77.7693 17.3367 78.8681 17.7863C79.967 18.236 80.916 18.9854 81.5653 19.9846C82.2146 20.9839 82.5643 22.133 82.5643 23.3321C82.5643 24.9308 81.9149 26.4297 80.8161 27.5788C79.7172 28.628 78.1689 29.2775 76.6205 29.2775Z" fill="#4F4F4F"/>
<path d="M49.9481 33.3244C46.6515 33.3244 43.4549 34.3236 40.7077 36.1222C37.9606 37.9708 35.8128 40.5688 34.5641 43.6165C33.3154 46.6641 32.9657 50.0115 33.6151 53.259C34.2644 56.5065 35.8627 59.4543 38.1604 61.8025C40.5079 64.1507 43.4549 65.6995 46.7015 66.349C49.9481 66.9985 53.2946 66.6487 56.3415 65.3997C59.3883 64.1507 61.9856 62.0023 63.8337 59.2544C65.6818 56.5065 66.6308 53.309 66.6308 50.0115C66.6308 45.6149 64.8826 41.3682 61.7359 38.2206C58.5891 35.073 54.3435 33.3244 49.9481 33.3244Z" fill="#4F4F4F"/>
</svg>
