<svg width="124" height="86" viewBox="0 0 124 86" fill="none" xmlns="http://www.w3.org/2000/svg">
<path d="M120.675 13.3397C119.975 10.7417 118.577 8.39354 116.679 6.54497C114.781 4.64643 112.383 3.29746 109.786 2.598C100.146 -1.43051e-06 61.586 0 61.586 0C61.586 0 23.0261 0 13.3861 2.49808C10.7888 3.2475 8.44122 4.59646 6.54319 6.495C4.64516 8.39354 3.24662 10.7417 2.54734 13.3397C-1.21593e-05 22.8824 0 42.7171 0 42.7171C0 42.7171 -1.21593e-05 62.6518 2.54734 72.0946C3.24662 74.6926 4.64516 77.0407 6.54319 78.8893C8.44122 80.7379 10.8387 82.1368 13.436 82.8363C23.1759 85.4343 61.636 85.4343 61.636 85.4343C61.636 85.4343 100.196 85.4343 109.836 82.9362C112.433 82.2368 114.831 80.8878 116.729 78.9893C118.627 77.0907 120.025 74.7425 120.725 72.1945C123.272 62.6518 123.272 42.8171 123.272 42.8171C123.272 42.8171 123.272 22.9324 120.675 13.3397ZM49.2988 61.0031V24.3812L81.3655 42.6672L49.2988 61.0031Z" fill="#4F4F4F"/>
</svg>
