<?xml version="1.0" encoding="utf-8"?>
<!-- Generator: Adobe Illustrator 25.2.1, SVG Export Plug-In . SVG Version: 6.00 Build 0)  -->
<svg version="1.1" id="Capa_1" xmlns="http://www.w3.org/2000/svg" xmlns:xlink="http://www.w3.org/1999/xlink" x="0px" y="0px"
	 viewBox="0 0 626.5 191.2" style="enable-background:new 0 0 626.5 191.2;" xml:space="preserve">
<style type="text/css">
	.st0{fill:url(#SVGID_1_);}
	.st1{fill:url(#SVGID_2_);}
	.st2{fill:url(#SVGID_3_);}
	.st3{fill:url(#SVGID_4_);}
	.st4{fill:url(#SVGID_5_);}
	.st5{fill:url(#SVGID_6_);}
	.st6{fill:url(#SVGID_7_);}
	.st7{fill:url(#SVGID_8_);}
	.st8{fill:#0B9649;}
</style>
<g>
	<g>
		
			<linearGradient id="SVGID_1_" gradientUnits="userSpaceOnUse" x1="51.6818" y1="8.9274" x2="51.6818" y2="178.2124" gradientTransform="matrix(1 0 0 -1 0 185.6)">
			<stop  offset="1.704893e-07" style="stop-color:#015A2F"/>
			<stop  offset="0.65" style="stop-color:#0B9649"/>
			<stop  offset="1" style="stop-color:#45B65F"/>
		</linearGradient>
		<path class="st0" d="M44.4,33.5c0.2,0.2,0.4,0.3,0.5,0.5c3.3,3.6,5,7.3,5,11.3c2.9,3.3,5.8,6.5,9.1,10c1.5-1.5,3.1-3,4.7-4.5V0.1
			H53.6c-7.7,0-13.9,6.2-13.9,13.9v2.7c0.7,0.7,1.5,1.4,2.2,2.1C46,22.8,47,28.3,44.4,33.5z"/>
		
			<linearGradient id="SVGID_2_" gradientUnits="userSpaceOnUse" x1="51.7318" y1="8.9274" x2="51.7318" y2="178.2124" gradientTransform="matrix(1 0 0 -1 0 185.6)">
			<stop  offset="1.704893e-07" style="stop-color:#015A2F"/>
			<stop  offset="0.65" style="stop-color:#0B9649"/>
			<stop  offset="1" style="stop-color:#45B65F"/>
		</linearGradient>
		<path class="st1" d="M43.9,81.5c-1.3-1.4-2.7-2.8-4.2-4.4v38.3c0,4,1.7,7.7,4.7,10.4l19.4,17.4V87c-1.7,0.5-3.5,0.7-5.3,0.8
			C53.1,87.8,47.9,85.5,43.9,81.5z"/>
		
			<linearGradient id="SVGID_3_" gradientUnits="userSpaceOnUse" x1="91.9818" y1="8.9274" x2="91.9818" y2="178.2124" gradientTransform="matrix(1 0 0 -1 0 185.6)">
			<stop  offset="1.704893e-07" style="stop-color:#015A2F"/>
			<stop  offset="0.65" style="stop-color:#0B9649"/>
			<stop  offset="1" style="stop-color:#45B65F"/>
		</linearGradient>
		<path class="st2" d="M103,42.6V0.1V0H81v38.6c2.3-0.6,4.7-1,7.1-1C93.5,37.6,98.5,39.3,103,42.6z"/>
		
			<linearGradient id="SVGID_4_" gradientUnits="userSpaceOnUse" x1="91.7818" y1="8.9274" x2="91.7818" y2="178.2124" gradientTransform="matrix(1 0 0 -1 0 185.6)">
			<stop  offset="1.704893e-07" style="stop-color:#015A2F"/>
			<stop  offset="0.65" style="stop-color:#0B9649"/>
			<stop  offset="1" style="stop-color:#45B65F"/>
		</linearGradient>
		<path class="st3" d="M90.7,80.1L90.7,80.1c-3.1-3.3-4.5-7.3-4.1-11.8c-0.3,0.3-0.6,0.5-0.9,0.8c-1.3,1.1-2.5,2.4-3.7,3.5l-0.1,0.1
			c-0.4,0.4-0.7,0.7-1.1,1v84.8l21.3,19.1c0.2,0.2,0.4,0.4,0.7,0.5v-85c-1.9-1.9-3.8-3.9-5.6-5.9C95.2,84.8,93,82.5,90.7,80.1z"/>
		
			<linearGradient id="SVGID_5_" gradientUnits="userSpaceOnUse" x1="131.1318" y1="8.9274" x2="131.1318" y2="178.2124" gradientTransform="matrix(1 0 0 -1 0 185.6)">
			<stop  offset="1.704893e-07" style="stop-color:#015A2F"/>
			<stop  offset="0.65" style="stop-color:#0B9649"/>
			<stop  offset="1" style="stop-color:#45B65F"/>
		</linearGradient>
		<path class="st4" d="M122.8,53.6l2.3,2.5c2.8,3,5.7,6.1,8.6,9.2v0.1l5.7,6.1l1.9,2l0.1,0.1c0.2,0.2,0.5,0.5,0.7,0.8V0.1h-21.9
			v50.7c0.1,0.1,0.1,0.1,0.2,0.2L122.8,53.6z"/>
		
			<linearGradient id="SVGID_6_" gradientUnits="userSpaceOnUse" x1="171.4318" y1="8.9274" x2="171.4318" y2="178.2124" gradientTransform="matrix(1 0 0 -1 0 185.6)">
			<stop  offset="1.704893e-07" style="stop-color:#015A2F"/>
			<stop  offset="0.65" style="stop-color:#0B9649"/>
			<stop  offset="1" style="stop-color:#45B65F"/>
		</linearGradient>
		<path class="st5" d="M169.5,0.1h-10.1v143.1l19.4-17.4c3-2.7,4.7-6.5,4.7-10.4V14C183.5,6.4,177.2,0.1,169.5,0.1z"/>
		
			<linearGradient id="SVGID_7_" gradientUnits="userSpaceOnUse" x1="86.4494" y1="8.9274" x2="86.4494" y2="178.2124" gradientTransform="matrix(1 0 0 -1 0 185.6)">
			<stop  offset="1.704893e-07" style="stop-color:#015A2F"/>
			<stop  offset="0.65" style="stop-color:#0B9649"/>
			<stop  offset="1" style="stop-color:#45B65F"/>
		</linearGradient>
		<path class="st6" d="M171.4,181.7c0.1-0.1,0.1-0.1,0.1-0.1c0.1-0.1,0.2-0.2,0.4-0.4c1.4-1.5,1.1-2.8,0.6-3.7
			c-0.7-1.2-1.6-1.9-2.8-1.9c-0.2,0-0.5,0-0.7,0.1c-0.9,0.2-1.7,0.5-2.5,0.8h-0.1c-0.5,0.2-1,0.3-1.5,0.3c-0.8,0-1.6-0.4-2.4-1
			c-0.8-0.7-1.7-1.5-1.6-1.9c0-0.2,0.2-0.5,1.6-1.3c1.5-0.8,2.1-2.2,1.7-3.7c-0.4-1.1-1.2-2.4-3.4-2.5c-0.1,0-0.1,0-0.2,0
			c-0.2,0-0.4,0-0.5,0s-0.3,0-0.4,0c-0.5,0-1,0.1-1.5,0.1c-0.6,0.1-1.2,0.1-1.8,0.1s-1.1-0.1-1.6-0.1c-0.9-0.2-1.9-0.8-2.4-1.6
			c-0.1-0.1-0.1-0.2-0.1-0.2c0-0.1,0.5-0.3,0.6-0.4c0.4-0.2,0.6-0.3,0.8-0.5l0.1-0.1c0,0,0.1,0,0.1-0.1c1.9-1.4,2.4-3,1.5-4.7
			c-0.6-1-1.6-1.6-2.8-1.6c-0.6,0-1.3,0.1-1.9,0.4c-0.4,0.2-0.8,0.4-1.1,0.5c-0.4,0.2-0.8,0.4-1.3,0.5c-0.4,0.1-0.7,0.2-1,0.2
			c-0.2,0-0.7,0-1-1.2c-0.5-2-0.1-3.5,1.2-4.7s2.5-2.4,3.6-3.6c1.4-1.5,1.5-3.2,0.2-4.6c-0.8-1-1.8-1.2-2.4-1.2
			c-0.7,0-1.5,0.2-2.1,0.7c-1.2,0.8-2.4,1.6-3.9,2.7c-0.6,0.4-0.9,0.4-1,0.4h-0.1c-0.1,0-0.5-0.1-1-0.7c-1.4-1.6-2.8-3.1-4.2-4.6
			c-0.7-0.8-1.5-1.5-2.1-2.3c-2.1-2.3-2.1-3-0.1-5.3c0.3-0.4,0.6-0.7,1-1c1-1,2-1.9,3-2.9c1.3-1.3,2.6-2.5,3.9-3.8
			c1-0.9,1.9-1.9,2.8-2.7c7.4-7.5,8-18.9,1.3-27c-0.4-0.5-0.9-1-1.3-1.5c-0.4-0.4-0.8-0.8-1.1-1.3c-1.1-1.4-1.5-2.8-0.8-4.4
			c0.8-2.3,0.7-4.4-0.7-6.3c-0.3-0.5-0.7-1-1.1-1.5c-1.5-1.6-3-3.2-4.5-4.8l-0.1-0.1l-1.9-2l-5.7-6.1c-2.9-3.1-5.8-6.2-8.6-9.2
			l-2.3-2.5l-2.4-2.5c-1.6-1.7-3.3-2.6-5-2.6c-0.5,0-1,0.1-1.6,0.2c-0.7,0.2-1.3,0.3-1.9,0.3c-1.5,0-2.7-0.6-3.9-1.9
			c-0.1-0.1-0.3-0.3-0.4-0.4c-0.3-0.3-0.6-0.5-0.8-0.8c-0.2-0.2-0.4-0.3-0.5-0.5c-3.7-3.6-8.3-5.6-13.2-5.6c-2.5,0-5.1,0.5-7.6,1.6
			c-2.5,1-4.9,2.6-6.8,4.5c-3.5,3.4-7.1,6.9-10.5,10.2c-0.7,0.7-1.5,1.4-2.2,2.1c-0.8,0.8-1.6,1.2-2.2,1.2c-0.2,0-1,0-2.2-1.3
			c-4.7-5-8.6-9.3-12.4-13.6c-0.7-0.8-1.1-1.8-1.1-2.4c0.4-2.9-0.5-5.3-3.1-8c-0.1-0.1-0.2-0.2-0.4-0.4c-2.2-2.3-2.7-4.7-1.3-7.6
			c1.3-2.6,0.8-5-1.3-7.1c-1.9-1.9-3.9-3.9-5.9-5.7c-0.8-0.8-1.8-1.2-2.7-1.2c-0.4,0-0.9,0.1-1.3,0.2c-0.6,0.2-1.3,0.4-1.9,0.7
			c-1.1,0.4-2.3,0.7-3.4,1.3c-8.1,4.1-14.6,9.7-20.1,17.7c-0.7,1-1.2,2.2-1.7,3.4c-0.1,0.2-0.2,0.4-0.2,0.6c-0.4,1.1-0.6,2.6,1,4.1
			c0.8,0.8,1.8,1.6,2.6,2.3C4.9,47.1,6,48.1,7,49c1.6,1.4,3.3,2.1,5.2,2.1c0.8,0,1.8-0.1,2.7-0.4c0.5-0.2,1.1-0.3,1.6-0.3
			c1.2,0,2.2,0.5,3.2,1.6l0.1,0.1c1.3,1.4,2.5,2.8,4,4c0.9,0.8,2.1,1.3,3.1,1.5c2.7,0.4,4.8,1.4,6.5,3.1l0.1,0.1c1.9,2,3.8,4,5.7,6
			c3.8,3.9,6.7,7,9.5,9.8c2.7,2.8,6.2,4.4,9.8,4.4c1.9,0,3.6-0.4,5.4-1.2c1.4-0.7,2.7-1.6,4-2.7c3.2-3,6.5-6.2,9.6-9.2
			c1.3-1.2,2.5-2.4,3.7-3.6c1-1,2-1.9,3-2.8c1.1-1,2.3-1.6,3.5-1.6c1.1,0,2.2,0.4,3.3,1.3c2.2,1.8,3,4,2.5,6.6c-0.6,3,0.1,5.5,2,7.6
			c2.2,2.4,4.5,4.8,6.7,7.1c4.2,4.5,8.5,9.1,12.8,13.6l0.2,0.2l4.2,4.4l0.3,0.4l0.4,0.4c2.1,2.2,4.1,3.2,6.4,3.2
			c1,0,1.9-0.2,2.9-0.5c0.3-0.1,0.5-0.2,0.8-0.2c0.5,0,1,0.2,1.5,0.7l0.4,0.5c1,1.3,2.1,2.5,3.1,3.8c0.7,0.8,0.7,1.6,0.1,2.4
			c-0.2,0.4-0.5,0.7-0.8,1.1c-0.8,1.2-1.8,2.5-2.8,3.5c-2.4,2.5-4.9,5-7.3,7.3l-0.1,0.1c-1.1,1.1-2.3,2.3-3.4,3.4
			c-0.6,0.6-1.1,1.1-1.6,1.8c-1.5,1.8-2.5,3.6-3,5.4c-1.2,4.8-0.2,9.2,3,13c0.2,0.2,0.3,0.4,0.5,0.6c2.4,2.6,4.8,5.2,7.1,7.7
			c0.7,0.7,1.3,1.5,2,2.1c1,1.1,1.1,1.5,1.1,1.5c0,0.1-0.1,0.4-1.1,1.5l-0.3,0.4c-0.7,0.7-1.3,1.4-1.9,2.2c-1.1,1.5-1,3.1,0.4,4.4
			c0.6,0.5,1.2,0.8,1.9,0.8s1.3-0.2,2.1-0.7c0.5-0.3,1.1-0.7,1.8-1.1c0.1-0.1,0.3-0.2,0.4-0.4c0.2-0.1,0.3-0.1,0.5-0.2l0.2-0.1
			c1.1-0.7,2.2-1.5,3.4-2.2c0.4-0.2,0.8-0.4,1.1-0.4s0.7,0.2,1.1,0.8c-0.4,0.3-0.9,0.7-1.2,1.2v0.1c-0.5,0.8-0.9,1.4-1,1.9
			c-0.2,0.5-0.1,1.1,0.2,1.6c0.5,0.8,1.6,1.5,2.5,1.8c1,0.3,2.1,0.3,3.1,0.3c0.4,0,0.8,0,1.1,0c1.6,0.1,3.1,0.5,4.7,1.5l-0.4,0.2
			c-0.5,0.4-1,0.7-1.5,1c-1.5,1-2,2.2-1.6,3.7c0.2,1,1.1,2.4,3.3,2.5c0.6,0.1,1.1,0.1,1.8,0.1c1.1,0.1,2.2,0.2,3.4,0.3
			c0.8,0.1,1.7,0.2,2.4,0.5c0.4,0.2,0.6,0.4,0.7,0.5c0,0.1-0.2,0.4-0.5,0.7c-0.2,0.2-0.4,0.4-0.7,0.5c-0.3,0.2-0.6,0.5-0.9,0.8
			c-1.1,1.1-1.3,2.4-0.7,3.8c0.7,1.5,2.1,1.8,3.2,1.8c1.8,0.1,3.5,0.3,5.2,0.7c1,0.2,1.9,0.5,2.8,0.9c0.7,0.2,1.3,0.5,2,0.7
			c0.4,0.1,0.8,0.2,1.2,0.2c1.7,0,3-1.1,3.2-2.8c0.2-1.3-0.7-2.8-1.1-3.3l-0.2,0.2c-0.7-1-1.1-1.6-1.1-1.9
			C169.8,182.9,170.4,182.4,171.4,181.7z"/>
	</g>
	<g>
		
			<linearGradient id="SVGID_8_" gradientUnits="userSpaceOnUse" x1="250.8318" y1="6.6344" x2="250.8318" y2="179.5358" gradientTransform="matrix(1 0 0 -1 0 185.6)">
			<stop  offset="1.704893e-07" style="stop-color:#015A2F"/>
			<stop  offset="0.65" style="stop-color:#0B9649"/>
			<stop  offset="1" style="stop-color:#45B65F"/>
		</linearGradient>
		<path class="st7" d="M264.6,64.1c-1.3-1.7-3-3-4.8-3.8c-1.9-0.8-4.4-1.7-7.4-2.5c-2.7-0.7-4.8-1.5-6.4-2.1
			c-1.5-0.7-2.8-1.6-3.9-2.8c-1-1.3-1.6-2.8-1.6-4.8c0-2.6,1-4.7,2.8-6.2c1.9-1.5,4.3-2.3,7.1-2.3c3.1,0,5.5,0.8,7.3,2.3
			c1.8,1.5,2.9,3.3,3.2,5.2h5.1c-0.4-3.4-2-6.2-4.7-8.3s-6.2-3.2-10.6-3.2c-3,0-5.6,0.5-7.9,1.6c-2.3,1-4.1,2.5-5.3,4.5
			s-1.9,4.1-1.9,6.5c0,2.9,0.6,5.3,1.9,7c1.3,1.8,2.8,3,4.7,3.8c1.8,0.8,4.4,1.6,7.5,2.5c2.7,0.7,4.8,1.4,6.3,2
			c1.6,0.6,2.8,1.5,3.9,2.8c1,1.2,1.6,2.8,1.6,4.9c0,2.5-0.9,4.7-2.8,6.3c-1.9,1.6-4.4,2.5-7.6,2.5c-3.4,0-6.1-0.8-7.9-2.6
			c-1.8-1.7-2.8-3.8-3-6.1h-5c0.1,2.4,0.8,4.6,2.2,6.5c1.3,1.9,3.2,3.4,5.6,4.5c2.4,1.1,5.1,1.6,8.2,1.6c3.2,0,6-0.6,8.3-1.8
			c2.3-1.3,4.1-2.8,5.2-4.8s1.8-4.1,1.8-6.3C266.5,68.1,265.9,65.8,264.6,64.1z"/>
		<path class="st8" d="M282.5,81.8c-2.8-1.6-5-3.8-6.6-6.7c-1.6-2.8-2.4-6.2-2.4-10c0-3.8,0.8-7.2,2.4-10s3.8-5.1,6.7-6.7
			c2.8-1.6,5.9-2.4,9.4-2.4c3.4,0,6.7,0.8,9.4,2.4c2.8,1.6,5,3.8,6.7,6.7c1.6,2.8,2.4,6.2,2.4,10c0,3.8-0.8,7.1-2.4,10
			s-3.9,5.1-6.7,6.7c-2.8,1.6-6,2.4-9.5,2.4C288.4,84.1,285.3,83.3,282.5,81.8z M298.7,78.3c2.1-1.1,3.8-2.8,5-5
			c1.3-2.2,1.9-5,1.9-8.2c0-3.2-0.6-6-1.9-8.2s-3-3.9-5-5c-2.1-1.1-4.4-1.6-6.8-1.6s-4.7,0.5-6.8,1.6c-2.1,1.1-3.8,2.8-5,5
			c-1.3,2.2-1.9,5-1.9,8.2c0,3.2,0.6,6,1.9,8.2s2.9,3.9,5,5s4.3,1.6,6.7,1.6C294.4,79.9,296.6,79.4,298.7,78.3z"/>
		<path class="st8" d="M349.7,46.5l-22,54.5h-5l7.2-17.6l-15.2-36.9h5.2l12.6,31.6l12.2-31.6C344.7,46.5,349.7,46.5,349.7,46.5z"/>
		<path class="st8" d="M395.9,35.9v9.3h-12.6v38.3h-11.6V45.2h-12.6v-9.3C359.1,35.9,395.9,35.9,395.9,35.9z"/>
		<path class="st8" d="M401.6,54.3c1.5-3,3.4-5.2,6-6.8c2.5-1.6,5.3-2.4,8.5-2.4c2.7,0,5,0.5,7,1.6s3.6,2.5,4.7,4.3v-5.2h11.6v37.8
			h-11.6v-5.3c-1.1,1.8-2.7,3.2-4.7,4.3c-2,1.1-4.4,1.6-7,1.6c-3.1,0-5.9-0.8-8.4-2.4s-4.5-3.9-6-6.8c-1.5-3-2.2-6.4-2.2-10.3
			C399.4,60.7,400.1,57.3,401.6,54.3z M425.3,57.8c-1.6-1.7-3.6-2.5-5.9-2.5s-4.2,0.8-5.9,2.5c-1.6,1.6-2.4,3.9-2.4,6.8
			c0,2.9,0.8,5.2,2.4,6.9c1.6,1.7,3.6,2.5,5.9,2.5s4.2-0.8,5.9-2.5c1.6-1.7,2.4-3.9,2.4-6.8C427.7,61.7,426.9,59.5,425.3,57.8z"/>
		<path class="st8" d="M459.3,33.4v50.2h-11.6V33.4H459.3z"/>
		<path class="st8" d="M467.6,54.3c1.5-3,3.4-5.2,6-6.8c2.5-1.6,5.3-2.4,8.5-2.4c2.7,0,5,0.5,7,1.6s3.6,2.5,4.7,4.3v-5.2h11.6v37.8
			h-11.6v-5.3c-1.1,1.8-2.7,3.2-4.7,4.3c-2,1.1-4.4,1.6-7,1.6c-3.1,0-5.9-0.8-8.4-2.4s-4.5-3.9-6-6.8c-1.5-3-2.2-6.4-2.2-10.3
			C465.4,60.7,466.1,57.3,467.6,54.3z M491.3,57.8c-1.6-1.7-3.6-2.5-5.9-2.5s-4.2,0.8-5.9,2.5c-1.6,1.6-2.4,3.9-2.4,6.8
			c0,2.9,0.8,5.2,2.4,6.9c1.6,1.7,3.6,2.5,5.9,2.5s4.2-0.8,5.9-2.5c1.6-1.7,2.4-3.9,2.4-6.8C493.7,61.7,492.9,59.5,491.3,57.8z"/>
		<path class="st8" d="M513.5,54.3c1.5-3,3.4-5.2,6-6.8c2.5-1.6,5.3-2.4,8.5-2.4c2.5,0,4.8,0.5,6.8,1.6c2.1,1,3.7,2.4,4.8,4.2V33.4
			h11.6v50.2h-11.6v-5.4c-1.1,1.8-2.7,3.3-4.7,4.4s-4.4,1.6-7,1.6c-3.1,0-5.9-0.8-8.5-2.4c-2.5-1.6-4.5-3.9-6-6.8
			c-1.5-3-2.2-6.4-2.2-10.3C511.4,60.7,512.1,57.3,513.5,54.3z M537.3,57.8c-1.6-1.7-3.6-2.5-5.9-2.5c-2.3,0-4.2,0.8-5.9,2.5
			c-1.6,1.6-2.4,3.9-2.4,6.8c0,2.9,0.8,5.2,2.4,6.9c1.6,1.7,3.6,2.5,5.9,2.5c2.3,0,4.2-0.8,5.9-2.5c1.6-1.7,2.4-3.9,2.4-6.8
			C539.7,61.7,538.9,59.5,537.3,57.8z"/>
		<path class="st8" d="M576.3,47.1c2.1-1.2,4.3-1.8,6.8-1.8v12.3h-3.2c-2.9,0-5.1,0.6-6.5,1.9c-1.5,1.3-2.2,3.4-2.2,6.5v17.5h-11.6
			V45.7h11.6V52C572.6,50,574.3,48.3,576.3,47.1z"/>
		<path class="st8" d="M595.9,81.7c-3-1.6-5.3-3.8-7-6.8s-2.5-6.4-2.5-10.3s0.8-7.3,2.6-10.3c1.7-3,4.1-5.2,7-6.8
			c3-1.6,6.4-2.4,10-2.4c3.7,0,7,0.8,10,2.4s5.3,3.9,7,6.8c1.7,3,2.6,6.4,2.6,10.3s-0.8,7.3-2.6,10.3s-4.1,5.2-7.1,6.8
			c-3,1.6-6.4,2.4-10,2.4C602.1,84.1,598.8,83.3,595.9,81.7z M611.5,71.6c1.6-1.6,2.4-3.9,2.4-7c0-3-0.8-5.3-2.3-7
			c-1.5-1.6-3.4-2.4-5.6-2.4c-2.2,0-4.1,0.8-5.6,2.4s-2.2,3.9-2.2,7c0,3,0.7,5.3,2.2,7c1.5,1.6,3.3,2.4,5.5,2.4
			C608.1,74.1,609.9,73.2,611.5,71.6z"/>
	</g>
</g>
</svg>
