<?xml version="1.0" encoding="utf-8"?>
<!-- Generator: Adobe Illustrator 25.2.1, SVG Export Plug-In . SVG Version: 6.00 Build 0)  -->
<svg version="1.1" id="Capa_1" xmlns="http://www.w3.org/2000/svg" xmlns:xlink="http://www.w3.org/1999/xlink" x="0px" y="0px"
	 viewBox="0 0 183.5 191.1" style="enable-background:new 0 0 183.5 191.1;" xml:space="preserve">
<style type="text/css">
	.st0{fill:#FFFFFF;}
</style>
<g>
	<g>
		<path class="st0" d="M44.4,33.4c0.2,0.2,0.4,0.3,0.5,0.5c3.3,3.6,5,7.3,5,11.3c2.9,3.3,5.8,6.5,9.1,10c1.5-1.5,3.1-3,4.7-4.5V0
			H53.6c-7.7,0-13.9,6.2-13.9,13.9v2.7c0.7,0.7,1.5,1.4,2.2,2.1C46,22.7,47,28.2,44.4,33.4z"/>
		<path class="st0" d="M43.9,81.4c-1.3-1.4-2.7-2.8-4.2-4.4v38.3c0,4,1.7,7.7,4.7,10.4l19.4,17.4V86.9c-1.7,0.5-3.5,0.7-5.3,0.8
			C53.1,87.7,47.9,85.4,43.9,81.4z"/>
		<path class="st0" d="M103,42.5V0v-0.1H81v38.6c2.3-0.6,4.7-1,7.1-1C93.5,37.5,98.5,39.2,103,42.5z"/>
		<path class="st0" d="M90.7,80L90.7,80c-3.1-3.3-4.5-7.3-4.1-11.8c-0.3,0.3-0.6,0.5-0.9,0.8c-1.3,1.1-2.5,2.4-3.7,3.5l-0.1,0.1
			c-0.4,0.4-0.7,0.7-1.1,1v84.8l21.3,19.1c0.2,0.2,0.4,0.4,0.7,0.5V93c-1.9-1.9-3.8-3.9-5.6-5.9C95.2,84.7,93,82.4,90.7,80z"/>
		<path class="st0" d="M122.8,53.5l2.3,2.5c2.8,3,5.7,6.1,8.6,9.2v0.1l5.7,6.1l1.9,2l0.1,0.1c0.2,0.2,0.5,0.5,0.7,0.8V0h-21.9v50.7
			c0.1,0.1,0.1,0.1,0.2,0.2L122.8,53.5z"/>
		<path class="st0" d="M169.5,0h-10.1v143.1l19.4-17.4c3-2.7,4.7-6.5,4.7-10.4V13.9C183.5,6.3,177.2,0,169.5,0z"/>
		<path class="st0" d="M171.4,181.6c0.1-0.1,0.1-0.1,0.1-0.1c0.1-0.1,0.2-0.2,0.4-0.4c1.4-1.5,1.1-2.8,0.6-3.7
			c-0.7-1.2-1.6-1.9-2.8-1.9c-0.2,0-0.5,0-0.7,0.1c-0.9,0.2-1.7,0.5-2.5,0.8h-0.1c-0.5,0.2-1,0.3-1.5,0.3c-0.8,0-1.6-0.4-2.4-1
			c-0.8-0.7-1.7-1.5-1.6-1.9c0-0.2,0.2-0.5,1.6-1.3c1.5-0.8,2.1-2.2,1.7-3.7c-0.4-1.1-1.2-2.4-3.4-2.5c-0.1,0-0.1,0-0.2,0
			c-0.2,0-0.4,0-0.5,0s-0.3,0-0.4,0c-0.5,0-1,0.1-1.5,0.1c-0.6,0.1-1.2,0.1-1.8,0.1s-1.1-0.1-1.6-0.1c-0.9-0.2-1.9-0.8-2.4-1.6
			c-0.1-0.1-0.1-0.2-0.1-0.2c0-0.1,0.5-0.3,0.6-0.4c0.4-0.2,0.6-0.3,0.8-0.5l0.1-0.1c0,0,0.1,0,0.1-0.1c1.9-1.4,2.4-3,1.5-4.7
			c-0.6-1-1.6-1.6-2.8-1.6c-0.6,0-1.3,0.1-1.9,0.4c-0.4,0.2-0.8,0.4-1.1,0.5c-0.4,0.2-0.8,0.4-1.3,0.5c-0.4,0.1-0.7,0.2-1,0.2
			c-0.2,0-0.7,0-1-1.2c-0.5-2-0.1-3.5,1.2-4.7s2.5-2.4,3.6-3.6c1.4-1.5,1.5-3.2,0.2-4.6c-0.8-1-1.8-1.2-2.4-1.2
			c-0.7,0-1.5,0.2-2.1,0.7c-1.2,0.8-2.4,1.6-3.9,2.7c-0.6,0.4-0.9,0.4-1,0.4h-0.1c-0.1,0-0.5-0.1-1-0.7c-1.4-1.6-2.8-3.1-4.2-4.6
			c-0.7-0.8-1.5-1.5-2.1-2.3c-2.1-2.3-2.1-3-0.1-5.3c0.3-0.4,0.6-0.7,1-1c1-1,2-1.9,3-2.9c1.3-1.3,2.6-2.5,3.9-3.8
			c1-0.9,1.9-1.9,2.8-2.7c7.4-7.5,8-18.9,1.3-27c-0.4-0.5-0.9-1-1.3-1.5c-0.4-0.4-0.8-0.8-1.1-1.3c-1.1-1.4-1.5-2.8-0.8-4.4
			c0.8-2.3,0.7-4.4-0.7-6.3c-0.3-0.5-0.7-1-1.1-1.5c-1.5-1.6-3-3.2-4.5-4.8l-0.1-0.1l-1.9-2l-5.7-6.1c-2.9-3.1-5.8-6.2-8.6-9.2
			l-2.3-2.5l-2.4-2.5c-1.6-1.7-3.3-2.6-5-2.6c-0.5,0-1,0.1-1.6,0.2c-0.7,0.2-1.3,0.3-1.9,0.3c-1.5,0-2.7-0.6-3.9-1.9
			c-0.1-0.1-0.3-0.3-0.4-0.4c-0.3-0.3-0.6-0.5-0.8-0.8c-0.2-0.2-0.4-0.3-0.5-0.5c-3.7-3.6-8.3-5.6-13.2-5.6c-2.5,0-5.1,0.5-7.6,1.6
			c-2.5,1-4.9,2.6-6.8,4.5c-3.5,3.4-7.1,6.9-10.5,10.2c-0.7,0.7-1.5,1.4-2.2,2.1c-0.8,0.8-1.6,1.2-2.2,1.2c-0.2,0-1,0-2.2-1.3
			c-4.7-5-8.6-9.3-12.4-13.6c-0.7-0.8-1.1-1.8-1.1-2.4c0.4-2.9-0.5-5.3-3.1-8c-0.1-0.1-0.2-0.2-0.4-0.4c-2.2-2.3-2.7-4.7-1.3-7.6
			c1.3-2.6,0.8-5-1.3-7.1c-1.9-1.9-3.9-3.9-5.9-5.7c-0.8-0.8-1.8-1.2-2.7-1.2c-0.4,0-0.9,0.1-1.3,0.2c-0.6,0.2-1.3,0.4-1.9,0.7
			c-1.1,0.4-2.3,0.7-3.4,1.3c-8.1,4.1-14.6,9.7-20.1,17.7c-0.7,1-1.2,2.2-1.7,3.4c-0.1,0.2-0.2,0.4-0.2,0.6c-0.4,1.1-0.6,2.6,1,4.1
			c0.8,0.8,1.8,1.6,2.6,2.3C4.9,47,6,48,7,48.9c1.6,1.4,3.3,2.1,5.2,2.1c0.8,0,1.8-0.1,2.7-0.4c0.5-0.2,1.1-0.3,1.6-0.3
			c1.2,0,2.2,0.5,3.2,1.6l0.1,0.1c1.3,1.4,2.5,2.8,4,4c0.9,0.8,2.1,1.3,3.1,1.5c2.7,0.4,4.8,1.4,6.5,3.1l0.1,0.1c1.9,2,3.8,4,5.7,6
			c3.8,3.9,6.7,7,9.5,9.8c2.7,2.8,6.2,4.4,9.8,4.4c1.9,0,3.6-0.4,5.4-1.2c1.4-0.7,2.7-1.6,4-2.7c3.2-3,6.5-6.2,9.6-9.2
			c1.3-1.2,2.5-2.4,3.7-3.6c1-1,2-1.9,3-2.8c1.1-1,2.3-1.6,3.5-1.6c1.1,0,2.2,0.4,3.3,1.3c2.2,1.8,3,4,2.5,6.6c-0.6,3,0.1,5.5,2,7.6
			c2.2,2.4,4.5,4.8,6.7,7.1c4.2,4.5,8.5,9.1,12.8,13.6l0.2,0.2l4.2,4.4l0.3,0.4l0.4,0.4c2.1,2.2,4.1,3.2,6.4,3.2
			c1,0,1.9-0.2,2.9-0.5c0.3-0.1,0.5-0.2,0.8-0.2c0.5,0,1,0.2,1.5,0.7l0.4,0.5c1,1.3,2.1,2.5,3.1,3.8c0.7,0.8,0.7,1.6,0.1,2.4
			c-0.2,0.4-0.5,0.7-0.8,1.1c-0.8,1.2-1.8,2.5-2.8,3.5c-2.4,2.5-4.9,5-7.3,7.3l-0.1,0.1c-1.1,1.1-2.3,2.3-3.4,3.4
			c-0.6,0.6-1.1,1.1-1.6,1.8c-1.5,1.8-2.5,3.6-3,5.4c-1.2,4.8-0.2,9.2,3,13c0.2,0.2,0.3,0.4,0.5,0.6c2.4,2.6,4.8,5.2,7.1,7.7
			c0.7,0.7,1.3,1.5,2,2.1c1,1.1,1.1,1.5,1.1,1.5c0,0.1-0.1,0.4-1.1,1.5l-0.3,0.4c-0.7,0.7-1.3,1.4-1.9,2.2c-1.1,1.5-1,3.1,0.4,4.4
			c0.6,0.5,1.2,0.8,1.9,0.8s1.3-0.2,2.1-0.7c0.5-0.3,1.1-0.7,1.8-1.1c0.1-0.1,0.3-0.2,0.4-0.4c0.2-0.1,0.3-0.1,0.5-0.2l0.2-0.1
			c1.1-0.7,2.2-1.5,3.4-2.2c0.4-0.2,0.8-0.4,1.1-0.4s0.7,0.2,1.1,0.8c-0.4,0.3-0.9,0.7-1.2,1.2v0.1c-0.5,0.8-0.9,1.4-1,1.9
			c-0.2,0.5-0.1,1.1,0.2,1.6c0.5,0.8,1.6,1.5,2.5,1.8c1,0.3,2.1,0.3,3.1,0.3c0.4,0,0.8,0,1.1,0c1.6,0.1,3.1,0.5,4.7,1.5l-0.4,0.2
			c-0.5,0.4-1,0.7-1.5,1c-1.5,1-2,2.2-1.6,3.7c0.2,1,1.1,2.4,3.3,2.5c0.6,0.1,1.1,0.1,1.8,0.1c1.1,0.1,2.2,0.2,3.4,0.3
			c0.8,0.1,1.7,0.2,2.4,0.5c0.4,0.2,0.6,0.4,0.7,0.5c0,0.1-0.2,0.4-0.5,0.7c-0.2,0.2-0.4,0.4-0.7,0.5c-0.3,0.2-0.6,0.5-0.9,0.8
			c-1.1,1.1-1.3,2.4-0.7,3.8c0.7,1.5,2.1,1.8,3.2,1.8c1.8,0.1,3.5,0.3,5.2,0.7c1,0.2,1.9,0.5,2.8,0.9c0.7,0.2,1.3,0.5,2,0.7
			c0.4,0.1,0.8,0.2,1.2,0.2c1.7,0,3-1.1,3.2-2.8c0.2-1.3-0.7-2.8-1.1-3.3l-0.2,0.2c-0.7-1-1.1-1.6-1.1-1.9
			C169.8,182.8,170.4,182.3,171.4,181.6z"/>
	</g>
</g>
</svg>
