<svg id="Capa_1" data-name="Capa 1" xmlns="http://www.w3.org/2000/svg" viewBox="0 0 167.77 137.63"><defs><style>.cls-1{fill:#504f4f;}</style></defs><path class="cls-1" d="M0,54.05c2-5.88,7-8.52,12.18-10.83a54.61,54.61,0,0,1,6.89-2.52c1.32-.39,1.61-1,1.6-2.29-.06-9.17,0-18.34,0-27.51,0-3.27,1.05-4.35,4.26-4.35H42.75c3,0,4.25,1.34,4,4.36A16.43,16.43,0,0,1,31.06,26.18c-1.24.05-2.48,0-3.8,0v12.2c17.54-4,35.27-5.34,53.32-5.67v-1.8q0-13.43,0-26.86C80.58,1.15,81.73,0,84.64,0h18.17c2.84,0,4.08,1.33,3.94,4.15a16.44,16.44,0,0,1-15.7,15.48c-1.25.05-2.49,0-3.83,0V32.71c17.82.35,35.6,1.68,53.3,5.71V10.82c0-3.21,1.08-4.27,4.34-4.27h17.85c2.92,0,4.15,1.34,4,4.27A16.44,16.44,0,0,1,151,26.18c-1.24.05-2.49,0-3.85,0V40.07A76.3,76.3,0,0,1,155,43a61.44,61.44,0,0,1,8.91,5.37,9.48,9.48,0,0,1,3.82,8.1c-.06,18.78-.13,37.56,0,56.34,0,4.89-2,8.2-5.8,10.81-5,3.49-10.79,5.38-16.62,7a173.63,173.63,0,0,1-26.77,5,294.93,294.93,0,0,1-43.46,1.85c-16.91-.52-33.73-2-50.2-6.14-6.28-1.59-12.46-3.54-18.06-7A16.51,16.51,0,0,1,0,116.62ZM28.43,65.32l.06.52a30.29,30.29,0,0,0,4.42,1.58A248.19,248.19,0,0,0,73.15,71.8a279.35,279.35,0,0,0,58-3.68c2.74-.48,5.42-1.33,8.12-2l0-.71c-1.9-.62-3.76-1.36-5.69-1.83-11.76-2.89-23.77-3.73-35.8-4.27a287.88,287.88,0,0,0-41.84,1c-6.87.7-13.69,1.85-20.5,3A56.49,56.49,0,0,0,28.43,65.32ZM67.3,130.71H80.58V129c0-2.57,0-5.13,0-7.7a3.26,3.26,0,1,1,6.52,0c0,1.42,0,2.84,0,4.26v5.11h12.94a7.91,7.91,0,0,0,.15-.89c0-5.08.19-10.17-.07-15.23a17.82,17.82,0,0,0-1.74-7c-3.47-6.74-9.16-9.8-16.78-9-7,.78-12.9,6.19-13.7,13.13C67.22,117.85,67.48,124.11,67.3,130.71Zm-20.39-41L80.46,92V79L46.91,76.77Zm73.9-13L87.22,79V92l33.59-2.24Zm6.66,51.34c6.58-1.63,13-3.14,19.4-4.85a33.61,33.61,0,0,0,11.78-5.41c1-.78,2.25-2,2.36-3.13.32-3.27.11-6.59.11-10.1-10.56,6-22.11,8.06-33.65,10.2ZM6.55,104.6c0,3.37-.07,6.47,0,9.58a3.25,3.25,0,0,0,1,2.27,45.65,45.65,0,0,0,7.55,4.7c8,3.49,16.47,5.1,25.06,6.57V114.79C28.63,112.68,17.15,110.54,6.55,104.6Zm0-38.75c0,2.5.12,5.23,0,7.94a4.93,4.93,0,0,0,2.27,4.57,23.43,23.43,0,0,0,3,1.92c8.91,4.61,18.63,6.37,28.48,8.16,0-4.1,0-8.08,0-12,0-1-.56-.94-1.24-1.09C32.81,73.92,26.49,72.76,20.34,71,15.67,69.7,11.22,67.63,6.55,65.85Zm120.87,23c7.23-1.84,14.29-3.39,21.17-5.5a51.14,51.14,0,0,0,10.07-4.89A5.07,5.07,0,0,0,161,75.2a95.72,95.72,0,0,0,.11-9.77c-.55.25-.92.44-1.3.6-3.8,1.59-7.49,3.58-11.43,4.68-6.52,1.84-13.21,3.09-19.81,4.64-.44.1-1.13.6-1.13.93C127.39,80.3,127.42,84.33,127.42,88.85ZM40.29,108c0-4.1,0-8.08,0-12,0-.34-.68-.88-1.1-1-8.09-1.46-16.15-3-23.85-6-2.92-1.11-5.73-2.5-8.74-3.84,0,2.75.12,5.46,0,8.16a4.73,4.73,0,0,0,2.54,4.74,62.71,62.71,0,0,0,7.81,4C24.32,105.08,32.16,106.67,40.29,108Zm87.12.38c6.68-1.66,13.19-3,19.5-4.94,4.05-1.26,7.85-3.38,11.65-5.34A4.58,4.58,0,0,0,161,95.24c.31-3.31.12-6.68.12-10.2-.49.24-.77.39-1.06.51-4.26,1.75-8.41,3.87-12.82,5.14-6.09,1.76-12.36,2.9-18.57,4.25-.81.18-1.26.31-1.24,1.27C127.44,100.08,127.41,104,127.41,108.4ZM31.21,43.89l0,.63a1.73,1.73,0,0,0,.31.35c4.38,3.15,8.75,6.3,13.17,9.4a2.68,2.68,0,0,0,1.67.29c4-.36,8-.8,12-1.16,3.12-.28,6.24-.47,9.63-.72-2.32-3.49-4.58-6.68-6.61-10-1.08-1.76-2.12-2.5-4.36-2.16C48.46,41.78,39.83,42.78,31.21,43.89Zm105.33.72,0-.73c-9.21-1.18-18.42-2.38-27.65-3.5a2,2,0,0,0-1.49.84c-2.38,3.46-4.69,7-7,10.46a5.47,5.47,0,0,0-.42.89c6.55.61,13,1.08,19.45,1.88a7,7,0,0,0,5.78-1.65c1.64-1.35,3.44-2.5,5.17-3.73Zm-69.25-5c3,4.45,5.61,8.44,8.31,12.38.2.3.84.41,1.28.42,4.63,0,9.26,0,13.89,0a2.32,2.32,0,0,0,1.66-.89c2-2.8,3.85-5.68,5.75-8.53.65-1,1.27-2,2.17-3.35Zm79.76,25.05c3.61-1.71,7.17-3.11,10.44-5,4.75-2.75,4.77-5.31-.05-7.95a107.86,107.86,0,0,0-11.53-4.91,2.07,2.07,0,0,0-1.56.42c-2.38,1.63-4.72,3.34-7.07,5l-5.48,3.95c2.56.74,4.94,1.33,7.25,2.13C142.27,59.43,145.41,60.72,147.05,64.67ZM20.64,64.29c3.39-6,9.66-6.23,15.27-8.12-4.42-3.16-8.7-6.23-13-9.26a1.28,1.28,0,0,0-1-.17C17.41,48.11,13,49.6,9.14,52.41c-3.29,2.41-3.29,4.12,0,6.54C12.57,61.51,16.56,62.94,20.64,64.29ZM46.9,109.07c4.32.45,8.49.87,12.66,1.33,1.19.14,1.74-.12,2.17-1.44a39.89,39.89,0,0,1,3-6.83A32.75,32.75,0,0,1,67.81,98L46.9,96.21ZM120.78,96.2,99.82,98c.51.62.86,1.09,1.25,1.52a20.73,20.73,0,0,1,5,9.44c.29,1.31.89,1.53,2,1.41,4.22-.47,8.44-.89,12.74-1.34Zm-59.94,21-13.91-1.39v13l13.91,1.41Zm60,11.59v-13l-13.88,1.41v13ZM87.19,13c7.12.87,11.56-2.9,12.09-6.35H87.19Zm-60,.17v6.39c6.6.49,10.78-1.71,12.29-6.39Zm132.29-.07H147.14v6.38C153,20.35,157.45,18.11,159.47,13.1Z"/><path class="cls-1" d="M83.92,104.84A3.27,3.27,0,1,1,80.59,108,3.28,3.28,0,0,1,83.92,104.84Z"/></svg>