<svg width="97" height="97" viewBox="0 0 97 97" fill="none" xmlns="http://www.w3.org/2000/svg">
<path d="M56.2211 24.1629L38.6893 24.5626C37.091 24.5626 35.5426 25.4619 34.7934 26.9607L26.6019 41.9992C25.8527 43.3981 25.8527 44.9969 26.6019 46.3459L34.7435 61.2843C35.4927 62.7332 37.141 63.6825 38.7393 63.6825H57.1202C58.8184 63.6825 60.3169 62.7832 61.1161 61.2843L69.6072 45.9461C70.4563 44.4973 70.3564 42.7486 69.5073 41.3497L60.167 26.3112C59.3179 24.9123 57.8694 24.1629 56.2211 24.1629Z" fill="#0B9649"/>
<path d="M51.4761 0.381213L62.3647 7.82547C63.8132 8.67482 63.8132 10.4235 63.114 11.9723L59.7175 18.9669C59.1681 20.0161 58.0192 20.8155 56.8205 20.8155H39.7383C38.4896 20.8155 37.3407 20.116 36.8412 18.9669L33.4448 11.7725C32.7455 10.2236 32.7455 8.47499 34.194 7.62565L44.9328 0.331233C46.1316 -0.118421 50.4771 -0.118403 51.4761 0.381213Z" fill="#0B9649"/>
<path d="M63.6135 19.6663L66.5105 12.9215C67.0599 11.6225 68.5084 10.8731 69.9069 11.1729C74.1026 12.0722 82.394 14.2205 84.6916 16.5188C87.7384 19.5664 90.7353 24.5126 92.1838 28.1099C92.1838 28.1099 91.5844 38.4519 90.4356 43.498C90.1359 44.9469 88.6874 45.7962 87.2389 45.4965L76.2004 43.0483C74.9517 42.7486 73.9028 41.9992 73.3034 40.9L64.0131 24.8624C62.9641 23.3136 62.9142 21.3151 63.6135 19.6663Z" fill="#0B9649"/>
<path d="M32.7954 19.6663L29.8984 12.9215C29.349 11.6225 27.9005 10.8731 26.502 11.1729C22.3063 12.0722 14.0149 14.2205 11.7173 16.5188C8.67051 19.5664 5.67362 24.5126 4.22513 28.1099C4.22513 28.1099 4.8245 38.4519 5.97331 43.498C6.273 44.9469 7.7215 45.7962 9.17 45.4965L20.2085 43.0483C21.4572 42.7486 22.5061 41.9992 23.1055 40.9L32.3958 24.8624C33.3948 23.3136 33.5446 21.3151 32.7954 19.6663Z" fill="#0B9649"/>
<path d="M18.0108 10.6733C18.0108 10.6733 27.7507 2.02994 39.3387 0.880829L30.5478 6.92616C30.2481 7.17597 29.9484 7.32587 29.5488 7.37583L18.0108 10.6733Z" fill="#0B9649"/>
<path d="M78.5979 10.6733C78.5979 10.6733 68.858 2.02994 57.27 0.880829L66.0609 6.92616C66.3606 7.17597 66.6603 7.32587 67.0599 7.37583L78.5979 10.6733Z" fill="#0B9649"/>
<path d="M37.9401 66.5803C41.9859 66.6802 54.8226 66.8301 58.6187 66.88C59.3179 66.88 59.9173 67.1798 60.3169 67.7793C61.9152 70.0776 66.3107 76.2228 68.3086 78.7209C68.858 79.4204 68.858 80.3197 68.4085 81.0191C66.1109 84.6164 59.268 94.9584 57.6696 95.4081C55.7716 95.9576 43.9339 97.3066 39.1888 95.508C39.039 95.4081 38.8891 95.3581 38.7892 95.2082C37.5405 93.8093 29.6487 84.9162 27.7007 80.9692C27.4011 80.2697 27.451 79.5203 27.8506 78.9208C29.5988 76.5226 34.4438 70.0276 36.142 67.4796C36.4916 66.88 37.141 66.4804 37.9401 66.5803Z" fill="#0B9649"/>
<path d="M74.4023 45.6464C74.4023 45.6464 86.7394 48.0945 88.7374 49.993C88.7374 49.993 88.8373 65.7809 87.9882 68.6786C87.9882 68.6786 78.1983 77.322 71.9049 78.1214C71.9049 78.1214 64.0131 69.9277 63.1639 65.631C63.1639 65.631 73.9527 47.9946 74.4023 45.6464Z" fill="#0B9649"/>
<path d="M94.881 35.4542C94.881 35.4542 100.026 59.9854 91.4346 70.1276V48.7939C91.4346 48.4942 91.5345 48.1944 91.5844 47.9446C92.2837 45.9961 94.881 38.1022 94.881 35.4542Z" fill="#0B9649"/>
<path d="M33.195 94.3089C33.195 94.3089 14.8141 90.6117 6.37289 72.5257L7.42182 71.5264C7.42182 71.5264 18.8599 80.8193 23.9546 81.0191C24.0545 81.119 32.6456 93.7593 33.195 94.3089Z" fill="#0B9649"/>
<path d="M63.2139 94.3089C63.2139 94.3089 81.5948 90.6117 90.036 72.5257L88.9871 71.5264C88.9871 71.5264 77.549 80.8193 72.4543 81.0191C72.4044 81.119 63.8133 93.7593 63.2139 94.3089Z" fill="#0B9649"/>
<path d="M22.0067 45.6464C22.0067 45.6464 9.66949 48.0945 7.67156 49.993C7.67156 49.993 7.57167 65.7809 8.42078 68.6786C8.42078 68.6786 18.2106 77.322 24.5041 78.1214C24.5041 78.1214 32.3959 69.9277 33.245 65.631C33.245 65.631 22.4562 47.9946 22.0067 45.6464Z" fill="#0B9649"/>
<path d="M1.52796 35.4542C1.52796 35.4542 -3.61673 59.9854 4.97437 70.1276V48.7939C4.97437 48.4942 4.87447 48.1944 4.82453 47.9446C4.22515 45.9961 1.52796 38.1022 1.52796 35.4542Z" fill="#0B9649"/>
</svg>
