<svg width="120" height="82" viewBox="0 0 120 82" fill="none" xmlns="http://www.w3.org/2000/svg">
<path d="M10.2893 18.8855L6.84287 20.2844C10.3392 28.9277 16.5328 34.2736 25.024 37.1714C26.023 41.7679 25.9231 46.2145 25.1738 50.9608C19.9792 52.2598 14.5349 51.4104 9.93966 48.6626C3.99583 45.2152 0.299683 39.9193 0.149838 32.7748C-6.09457e-06 23.382 0 13.9393 0 4.5465C0 3.14758 0.249735 1.84858 0.399579 0.249808C1.84807 0.149885 3.09677 0 4.29553 0C20.3788 0 36.4122 6.09457e-06 52.5454 0.0999292C56.7411 0.0999292 60.7869 1.49886 64.0835 4.14682C70.8264 9.34282 77.4695 14.6887 84.1126 20.0346C84.2625 20.1845 84.2625 20.4842 84.2625 20.734C84.1126 20.8839 83.8629 21.1337 83.7131 21.1337C73.6235 21.2337 63.6839 21.2337 53.5943 21.1337C52.5954 21.1337 51.4466 20.4343 50.6974 19.7348C48.5496 18.0361 46.5517 16.1376 44.2041 13.9892L41.5069 16.5872C45.3529 20.1845 48.8493 23.5319 52.3456 26.8294C58.2895 32.4251 64.3332 37.9208 70.327 43.5165C71.226 44.3659 72.0252 45.3651 72.6745 46.4143C74.2229 48.9623 73.8233 51.2106 71.7754 53.2091C69.6277 55.2575 67.0304 55.6572 64.5829 53.9085C61.2864 51.4604 58.1396 48.7125 54.9429 46.0146C51.0969 42.8171 47.3009 39.5196 43.4549 36.3221C42.1562 35.1729 40.458 34.4735 38.7098 34.5734C36.1125 34.5734 33.4153 34.3236 30.818 34.1238C22.4267 33.4243 16.2831 29.0776 11.9876 21.9831C11.4381 21.0338 10.8887 20.0346 10.2893 18.8855Z" fill="#4F4F4F"/>
<path d="M77.7193 49.7118C91.4051 48.5626 105.091 48.5626 118.777 49.7118C119.026 50.6111 119.226 51.6103 119.326 52.5595C119.326 60.0038 119.426 67.2982 119.176 74.7425C119.026 79.189 116.879 81.0876 112.433 81.0876C87.2094 81.1875 61.9856 81.1875 36.7119 81.0876C32.2166 81.0876 30.2186 78.9392 29.9189 74.3428C29.5193 67.2482 29.4694 60.1037 29.819 53.0092C29.9189 52.01 30.0688 51.0107 30.2186 49.5618C34.1146 49.2621 37.9606 48.8124 41.7566 48.7125C44.7535 48.6126 47.7005 49.1622 50.7972 49.312C52.3956 49.412 53.9939 50.0615 55.1427 51.2106C56.8909 52.8094 58.739 54.2582 60.5871 55.807C67.4799 61.4527 74.3728 59.4043 77.1699 50.9108C77.3697 50.711 77.5195 50.3113 77.7193 49.7118ZM36.6619 58.0553C36.6619 63.2013 36.6619 67.7479 36.6619 72.3443C36.6619 73.5434 37.3612 74.2428 38.4101 74.3927C41.0074 74.6425 43.6047 74.9923 46.202 74.7924C52.995 74.1929 53.0949 74.043 53.3945 67.1483C53.5444 64.1506 53.6443 61.2029 52.1958 58.0553H36.6619ZM103.343 70.6456V70.0461C98.0482 70.2959 92.8536 70.4957 87.609 70.6456C86.5601 70.7455 85.6111 71.0453 85.4613 72.3443C85.3614 73.7932 86.3104 74.3428 87.5091 74.4927C90.2563 74.6425 93.0034 74.7924 95.7506 74.7924C100.645 74.7924 105.441 74.6425 110.335 74.4927C111.534 74.4927 112.633 74.043 112.633 72.5941C112.633 71.1452 111.584 70.7456 110.335 70.6956C108.188 70.6456 105.74 70.6456 103.343 70.6456ZM96.25 63.2513C100.995 64.0007 105.89 64.1506 110.635 63.5511C112.933 63.3013 112.933 63.1014 112.034 60.0538H96.2001V63.2513H96.25Z" fill="#4F4F4F"/>
<path d="M58.9388 26.2798C61.5361 26.1299 64.1334 25.8801 66.7307 25.7302C82.4144 25.1307 98.0981 25.1807 113.682 26.1299C117.728 26.3797 119.326 28.4281 119.326 33.6241C118.427 33.8739 117.478 34.0738 116.579 34.1737C100.346 34.1737 84.2125 34.1737 68.0293 34.1737C67.1802 34.1737 66.431 34.0238 65.6818 33.7241C64.9326 33.4243 64.2333 32.9746 63.6839 32.3251C61.9357 30.5765 60.2374 28.8278 58.4893 27.0292L58.9388 26.2798Z" fill="#4F4F4F"/>
<path d="M71.226 38.5204H119.226C119.376 40.5188 119.476 42.2675 119.626 44.4658C116.779 44.7156 114.481 45.0653 112.134 45.0653C102.643 45.1652 93.1033 45.0653 83.6132 45.0653C82.8639 45.0653 82.0648 45.0653 81.3156 44.9654C75.9711 44.6656 74.9222 43.9662 71.226 38.5204Z" fill="#4F4F4F"/>
<path d="M46.5516 44.5158C41.0573 45.4151 35.4632 45.3651 30.0188 44.3659V38.92C36.8118 36.8716 42.0064 38.7702 46.5516 44.5158Z" fill="#4F4F4F"/>
<path d="M48.5995 69.8962C47.3009 70.4458 45.9023 70.6456 44.5537 70.6456C43.2051 70.6456 41.8066 70.3459 40.5579 69.7463V62.5019C43.2551 61.2029 45.7525 61.6026 48.3498 62.1022C49.4986 64.7002 49.2988 67.1983 48.5995 69.8962Z" fill="#4F4F4F"/>
</svg>
