<svg width="114" height="114" viewBox="0 0 114 114" fill="none" xmlns="http://www.w3.org/2000/svg">
<path d="M33.5628 109.517C42.7533 109.517 51.1445 109.118 59.4859 109.617C61.4838 109.717 63.4817 109.367 65.3798 108.718C67.2278 108.018 68.976 106.869 70.3746 105.52C71.8231 104.121 72.9219 102.473 73.6711 100.524C74.3704 98.6756 74.7201 96.6771 74.6701 94.7286C74.3704 85.186 74.3704 75.5933 74.6701 66.0507C74.9698 57.2574 68.0769 50.6125 59.7356 50.9623C51.8438 51.3619 44.0019 51.0622 36.1101 51.0622H31.6648C31.5149 49.5134 31.3651 48.4642 31.3651 47.3151C31.3651 35.3243 31.3651 23.2835 31.3651 11.2928C31.3651 4.19822 35.261 0.101374 42.2038 0.101374C62.3829 0.00145096 82.512 0.251253 102.591 0.00144486C109.084 -0.0984783 113.68 4.99761 113.58 11.1929C113.28 33.5257 113.43 55.8585 113.43 78.1913V82.3881H106.987C101.193 82.3881 95.3486 82.3881 89.5546 82.3881C84.0603 82.3881 82.2123 84.2367 82.2123 89.8823C82.2123 96.9769 82.2123 104.121 82.2123 111.166V113.164C81.6628 113.314 81.1634 113.414 80.514 113.414C67.3777 113.414 54.1914 113.414 40.9551 113.414C38.2579 113.464 35.8604 112.515 33.5628 109.517ZM55.1903 9.04449C55.0405 10.7931 54.8906 12.0422 54.6409 13.3912C50.1456 14.3904 46.4494 16.2889 46.4494 21.5849C46.4494 26.8808 50.0956 28.8293 54.4911 29.7785V37.9722C52.7928 36.6732 51.4442 36.0737 50.8448 34.9745C49.7959 32.9761 48.4973 33.076 46.5493 33.5756C46.6992 38.8716 50.4453 40.3704 54.6409 41.4696C54.7907 42.9184 54.9406 44.3174 55.0904 45.9161L58.5868 45.6164C58.7366 44.0675 58.8365 42.7686 58.9864 41.4196C63.2819 40.4204 66.7284 38.6717 66.9281 33.6756C67.1779 28.1798 63.4318 26.1813 59.0363 24.9323V18.0376C61.0343 17.6379 62.0332 18.5872 62.6326 19.9361C63.6316 22.0845 64.9802 21.6848 66.8282 20.9853C66.4287 15.9392 62.9323 14.3404 58.9364 13.3412C58.7866 11.8923 58.6368 10.5933 58.4869 9.19439L55.1903 9.04449ZM80.3642 42.9684H102.391V39.2213H80.6139C80.4641 39.7709 80.3142 40.2705 80.2143 40.8201C80.2143 41.6194 80.3142 42.3189 80.3642 42.9684ZM102.391 19.5864C94.949 19.5864 87.7066 19.4865 80.3642 19.6863V23.1836H102.641C102.541 21.9346 102.491 20.9853 102.391 19.5864ZM80.2143 60.8047C80.3142 62.2536 80.3642 63.3527 80.3642 64.302H101.792C101.642 63.003 101.542 61.9538 101.492 60.8047H80.2143ZM80.4641 74.1944H97.1967C97.0469 72.7955 96.947 71.7463 96.897 70.7471C89.8543 69.9976 81.3632 70.1975 80.1644 71.3466C80.2143 72.1959 80.3142 73.1452 80.4641 74.1944ZM96.2976 49.2636H80.1644C80.3142 50.5626 80.4141 51.6118 80.4641 52.7109H96.2976V49.2636ZM96.1978 29.6287H80.2143C80.3142 30.9277 80.3142 31.827 80.3642 32.9761H96.1978V29.6287Z" fill="#4F4F4F"/>
<path d="M0.0975555 82.6379H70.4245C70.4245 87.684 70.8241 92.5802 70.3246 97.3765C69.8751 102.373 65.7294 105.62 60.6846 105.62C43.8022 105.72 26.8698 105.72 9.98729 105.62C4.64284 105.62 0.49714 102.023 0.147503 96.6771C-0.152186 92.1805 0.0975555 87.5341 0.0975555 82.6379ZM60.7346 94.229C60.7346 93.4795 60.5847 92.6801 60.335 92.0306C60.0353 91.3312 59.6357 90.6317 59.1363 90.1321C58.5868 89.5825 57.9874 89.1329 57.2882 88.8331C56.5889 88.5333 55.8397 88.3835 55.0905 88.3835C54.3412 88.3835 53.5421 88.5333 52.8927 88.7831C52.1935 89.0829 51.4942 89.4826 50.9947 89.9822C50.4453 90.5318 49.9957 91.1313 49.6961 91.8308C49.3964 92.5302 49.2465 93.2797 49.2465 94.0291C49.2465 95.5779 49.796 97.0767 50.9448 98.1759C51.9937 99.2251 53.4921 99.9246 55.0905 99.9246C56.6388 99.9246 58.1373 99.375 59.2361 98.2259C60.0353 97.2267 60.7346 95.7778 60.7346 94.229Z" fill="#4F4F4F"/>
<path d="M0.0975421 72.1459C0.0975421 69.2981 -0.0523038 66.7001 0.197437 64.202C0.597022 58.8562 4.49297 55.1091 9.88737 55.0091C26.9197 54.9092 44.0019 54.9092 61.0343 55.0091C63.3818 54.9092 65.6794 55.8585 67.4776 57.3573C69.2258 58.9561 70.3246 61.1044 70.5244 63.4526C70.8241 66.2005 70.6243 69.0483 70.6243 72.096H0.0975421V72.1459Z" fill="#4F4F4F"/>
<path d="M100.194 86.1851C103.34 86.1851 106.387 86.1851 109.534 86.1851C110.932 86.1851 112.581 85.6356 113.38 87.3342C114.129 89.0329 112.631 89.9322 111.682 90.8316C105.338 97.2766 98.8949 103.622 92.5515 109.967C91.7024 110.966 90.8033 111.815 89.8044 112.665C88.256 113.864 86.8075 113.264 86.358 111.466C86.2581 110.866 86.2081 110.167 86.2581 109.567C86.2581 103.122 86.2581 96.6271 86.2581 90.232C86.2581 86.6348 86.6576 86.2351 90.2539 86.1851C93.4506 86.1851 96.7971 86.1851 100.194 86.1851Z" fill="#4F4F4F"/>
<path d="M54.591 25.3819C51.2444 24.3327 50.2455 23.2336 50.3953 21.2351C50.5452 19.3865 51.694 18.4872 54.591 17.9377V25.3819Z" fill="#4F4F4F"/>
<path d="M59.1862 29.6287C62.4828 30.6779 63.0821 31.3274 63.0322 33.4757C62.9323 35.6241 62.4328 36.2236 59.1862 37.1229V29.6287Z" fill="#4F4F4F"/>
</svg>
