<svg id="Capa_1" data-name="Capa 1" xmlns="http://www.w3.org/2000/svg" viewBox="0 0 122.38 125.14"><defs><style>.cls-1{fill:#fff;}</style></defs><path class="cls-1" d="M32.17.3a14.13,14.13,0,0,1,1.89,2.55q2.41,5.7,4.59,11.5A4.59,4.59,0,0,1,38.78,17a2.21,2.21,0,0,1-2.27,1.52A2.59,2.59,0,0,1,34,16.76c-1-2.51-2-5-3-7.55Q30,6.9,29.12,4.59c-.85-2.11-.56-3,1.35-4.29Z"/><path class="cls-1" d="M94.59.3c1.89,1.42,2.11,2.2,1.2,4.45-1.61,4-3.21,8.05-4.85,12.06a2.62,2.62,0,0,1-2.66,1.73,2.65,2.65,0,0,1-2.35-2.14,3.33,3.33,0,0,1,.21-1.65c1.66-4.22,3.32-8.44,5.08-12.62.31-.71,1.1-1.22,1.67-1.83Z"/><path class="cls-1" d="M61.18,125.14H3.41c-2.48,0-3.39-.89-3.4-3.35Q0,88.7,0,55.61a3.45,3.45,0,0,1,1.73-3.22q11.9-7.61,23.74-15.3a1.5,1.5,0,0,0,.58-1c.07-1.42,0-2.84,0-4.26a2.67,2.67,0,0,1,2.92-3c3.62,0,7.24,0,10.85,0a4.14,4.14,0,0,0,2-.57c6.18-3.81,12.35-7.64,18.47-11.55a3.54,3.54,0,0,1,4.26,0q9.18,5.85,18.47,11.54a4.23,4.23,0,0,0,2,.59c2.68.07,5.36,0,8.05,0,2.15,0,3.14,1,3.15,3.1,0,1.58-.49,3.45.18,4.67s2.49,1.8,3.82,2.65c6.72,4.33,13.42,8.68,20.17,13a3.75,3.75,0,0,1,1.91,3.5q0,33,0,65.94c0,2.57-.87,3.45-3.41,3.45ZM31.39,34.24c0,.32-.07.52-.07.72q0,28.41,0,56.81a1.84,1.84,0,0,0,.77,1.31c2,1.32,4.17,2.52,6.21,3.83a1.62,1.62,0,0,0,2,0c5.8-3.35,11.64-6.62,17.41-10a3.89,3.89,0,0,1,4.3,0c6.38,3.55,12.81,7,19.2,10.53a1.85,1.85,0,0,0,2.19-.06c2.15-1.39,4.33-2.72,6.56-4a2,2,0,0,0,1.12-2q0-27.85,0-55.71V34.24ZM11.16,119.61l.08.2h100c-.51-.31-.77-.49-1-.64Q85.53,105.7,60.86,92.22a1.68,1.68,0,0,0-1.87,0q-18.36,10.53-36.76,21Zm85.2-30.29a3.77,3.77,0,0,0,.5-.21c6.52-4,13-7.89,19.55-11.89a1.85,1.85,0,0,0,.61-1.39c0-6.13,0-12.27,0-18.41a1.71,1.71,0,0,0-.89-1.67q-9.54-6.09-19-12.25a7.07,7.07,0,0,0-.78-.39ZM26,43.09c-.27.13-.41.18-.54.26Q15.72,49.64,6,56a1.72,1.72,0,0,0-.62,1.28c0,6.21,0,12.43,0,18.65a1.53,1.53,0,0,0,.9,1.52q9.48,5.72,18.94,11.47c.26.16.54.28.89.46Zm90.95,40L87.65,100.88l29.34,16ZM5.37,116.86l28.7-16.4L5.37,83Zm45.71-88.1H73.94c-3.84-2.39-7.4-4.63-11-6.82a1.44,1.44,0,0,0-1.18.15c-2.22,1.34-4.41,2.73-6.61,4.1Z"/><path class="cls-1" d="M4,16.94A8.26,8.26,0,0,1,5.8,18q4.58,4.47,9.05,9a2.62,2.62,0,0,1,0,3.81,2.58,2.58,0,0,1-3.71-.1c-3.07-3-6.1-6.06-9.12-9.11a2.42,2.42,0,0,1-.58-2.9A3,3,0,0,1,4,16.94Z"/><path class="cls-1" d="M109.78,31.52c-1.5,0-2.31-.46-2.79-1.42a2.34,2.34,0,0,1,.31-2.83c3.15-3.22,6.32-6.41,9.55-9.55a2.59,2.59,0,0,1,3.54,3.78c-1.67,1.77-3.42,3.46-5.14,5.19C114,28,112.7,29.3,111.36,30.54A8.36,8.36,0,0,1,109.78,31.52Z"/><path class="cls-1" d="M57.3,39.32H72.4c2.14,0,3.14,1,3.14,3.1q0,7.13,0,14.25c0,2.6-.89,3.49-3.54,3.49H44.61c-.94,0-1.87,0-2.8,0A2.65,2.65,0,0,1,39,57.26q0-7.56,0-15.11A2.63,2.63,0,0,1,42,39.32Zm12.87,5.32H44.4V54.86H70.17Z"/><path class="cls-1" d="M39.09,80.89V75.75H80.6v5.14Z"/><path class="cls-1" d="M39.08,70.44v-5H80.63v5Z"/></svg>