<svg width="113" height="113" viewBox="0 0 113 113" fill="none" xmlns="http://www.w3.org/2000/svg">
<path d="M47.3453 55.9015C49.4931 53.5533 51.6908 51.1551 53.8386 48.8069C57.3349 44.81 58.1841 40.0636 56.0363 35.9668C55.2871 34.5179 54.1882 33.2189 52.8396 32.2197C51.441 31.2204 49.9426 30.521 48.3443 30.3211C46.646 30.0214 45.0477 30.1713 43.4493 30.6209C41.851 31.0706 40.4025 32.0198 39.1538 33.1689C33.9592 38.2151 28.9144 43.511 23.7198 48.6071C22.8707 49.4564 21.9716 50.3058 20.5731 51.5049C20.4732 49.9561 20.4232 48.9568 20.4232 48.0575C20.4232 34.6178 20.4232 21.1282 20.4232 7.68854C20.4232 2.19277 22.571 0.0444103 28.2152 0.0444103C40.1528 0.0444103 51.9905 0.0444103 63.9281 0.0444103H103.687C104.686 0.0444103 105.685 -0.0555129 106.684 0.0444103C110.729 0.34418 112.777 2.49253 112.777 6.63935C112.877 15.5825 112.777 24.4756 112.777 33.4188C112.777 38.9145 112.777 44.5102 112.777 50.006C112.777 54.6524 110.879 56.6009 106.184 56.8008C105.335 56.9007 104.436 56.8008 103.587 56.8008H47.7449L47.3453 55.9015ZM109.131 13.9837C109.131 12.5848 109.231 11.2358 109.131 9.83688C108.981 5.98984 107.083 4.09131 103.337 3.94142C100.44 3.8415 97.5931 3.8415 94.6961 3.94142C91.1998 4.04135 89.102 5.98984 88.9022 9.53711C88.7523 12.5848 88.7523 15.5825 88.9022 18.5802C89.052 22.0775 91.0499 24.0759 94.5463 24.3257C97.5432 24.4756 100.59 24.4756 103.587 24.3257C107.033 24.1759 109.031 22.0275 109.181 18.5302C109.181 17.0313 109.131 15.5325 109.131 13.9837ZM62.5795 34.1182H70.8209C70.6711 32.7193 70.5712 31.77 70.5212 30.6709H62.7293C62.7293 31.82 62.6294 32.7193 62.5795 34.1182ZM82.6586 30.6709H74.8667V34.1182H82.6087L82.6586 30.6709ZM62.7293 46.3588H70.4713V42.7116H62.7293V46.3588ZM94.6961 30.6709H87.2539V34.1182H94.6961V30.6709ZM99.3413 34.1182H106.684V30.6209H99.3413V34.1182ZM106.734 42.7616H99.2914V46.2589H106.734V42.7616ZM48.5441 6.33957H44.6981V11.8353H48.5441V6.33957ZM36.8063 6.28961V12.1851L40.2527 11.8853V6.38954L36.8063 6.28961ZM28.6147 11.9353H32.211V6.33957H28.6147V11.9353ZM56.3859 6.0398L52.9395 6.33957V11.8353H56.3859V6.0398Z" fill="#4F4F4F"/>
<path d="M6.18803 64.9445C7.73642 66.3934 8.38574 67.0928 9.33476 67.9422C9.93414 67.4925 10.6334 67.0429 11.1828 66.5433C21.0226 56.7008 30.9124 46.9083 40.7522 37.016C42.2006 35.5671 43.6491 34.2681 45.8968 34.1682C48.644 34.0183 50.8916 34.8676 52.3401 37.3157C53.8885 39.8638 53.7886 42.3619 51.9406 44.6601C50.0925 46.9583 48.0446 49.1566 45.9967 51.4049C42.8 54.9022 39.5534 58.4495 36.3068 61.8968C34.7084 63.5955 34.3089 65.0444 35.4577 67.1927C39.2038 74.637 38.954 82.1313 35.4577 89.6255C34.3089 91.9737 32.9103 93.2227 30.0133 93.1228C20.2235 92.873 10.4336 93.0229 0.443993 93.0229C0.294148 92.1735 0.144295 91.2742 0.0443984 90.325C0.0443984 76.3857 -0.055498 62.4964 0.0443984 48.5571C0.0443984 43.1113 2.04233 37.8653 5.68855 33.8184C7.68648 31.5202 9.9841 29.6216 12.4815 28.0229C10.7833 32.4695 9.33476 36.966 7.33683 41.2627C4.33994 47.9076 4.98927 54.2027 14.5793 58.2996L6.18803 64.9445Z" fill="#4F4F4F"/>
<path d="M100.54 69.8407C99.3912 72.9883 98.3923 75.7362 97.3434 78.484C95.745 82.381 92.7481 83.7799 88.8022 82.2311C77.8136 77.9345 66.7751 73.5878 55.7865 69.2911C52.0404 67.8422 48.2943 66.2934 44.5482 64.8445C43.3994 64.3949 42.2506 63.8453 41.0518 63.2958C42.2006 60.9476 43.799 60.1482 46.1965 60.2481C55.5368 60.398 64.7772 60.348 74.1175 60.348C75.1164 60.2481 76.1154 60.348 77.1144 60.6478C84.7564 63.4956 92.4485 66.5432 100.54 69.8407Z" fill="#4F4F4F"/>
<path d="M32.0612 97.1198V112.858H0.543884V97.1198H32.0612ZM24.4691 104.614H28.1153V101.167H24.4691C24.3692 101.716 24.3192 102.316 24.2193 102.865C24.3192 103.415 24.4191 104.014 24.4691 104.614Z" fill="#4F4F4F"/>
<path d="M16.2776 31.5202V53.3034C11.1329 52.8538 8.93518 49.4564 10.6834 44.3603C12.2318 40.0137 13.8301 35.717 15.4284 31.3703L16.2776 31.5202Z" fill="#4F4F4F"/>
<path d="M103.937 60.7977C103.187 62.6962 102.638 64.295 101.889 66.2935C97.4433 64.5948 93.1477 62.946 88.9021 61.2973L89.002 60.8476H103.986V60.7977H103.937Z" fill="#4F4F4F"/>
<path d="M105.085 11.9353L101.239 12.4848V15.9821L104.886 16.3818C105.435 20.029 105.285 20.3788 102.288 20.4287C99.3913 20.5287 96.4943 20.4287 93.2476 20.4287C93.0978 18.8799 92.9979 17.8307 92.9479 16.5317L96.694 15.8323C96.7939 14.833 96.8439 13.7838 96.9438 12.4848L93.2976 11.7854C93.1977 10.7861 93.1477 9.78691 93.0478 8.33803C96.6441 7.93834 100.24 7.88838 103.737 8.18815C105.835 8.48792 105.385 10.1866 105.085 11.9353Z" fill="#4F4F4F"/>
</svg>
