<svg width="94" height="97" viewBox="0 0 94 97" fill="none" xmlns="http://www.w3.org/2000/svg">
<path d="M87.1796 58.8491C87.0298 53.0036 85.0318 51.4048 80.037 52.7038C79.4876 52.8537 78.9881 52.9536 78.3388 53.1035C61.5562 57.4502 46.5218 51.5547 37.2814 36.9159C32.836 29.8714 30.1388 22.1773 28.3906 14.0835C27.5415 10.3364 26.8423 6.48937 26.1929 2.74225C20.349 5.73994 5.81409 2.44247 7.16268 10.6362C8.31149 16.7814 7.56227 23.1265 5.11481 28.8222C4.0659 31.3702 2.91709 33.8183 1.81823 36.3164C-0.878968 42.8114 -0.179691 49.4063 1.3687 56.1511C29.8891 59.9982 58.3595 61.7469 87.1796 58.8491Z" fill="#0B9649"/>
<path d="M1.61845 69.4909C1.51855 73.3879 -2.52725 81.7315 3.46653 83.7299C8.66113 72.9382 18.8506 70.5401 26.5426 79.0335C27.5915 80.2826 29.2897 80.6323 30.8381 80.0828C37.4812 77.5347 42.0265 78.484 49.9183 81.8314C51.9662 82.6808 54.2638 82.0812 55.6623 80.2826C58.1098 77.135 61.1566 74.4371 65.1525 74.2372C72.8944 73.6877 76.7405 79.4332 78.2389 81.3817C82.2348 77.3348 83.933 73.188 84.7322 70.0404C57.3606 71.7891 29.2398 70.64 1.61845 69.4909Z" fill="#0B9649"/>
<path d="M1.61845 59.8983V66.0435C3.46653 66.3433 5.06486 66.743 6.7631 66.7929C11.3583 67.0927 15.9536 67.3925 20.5488 67.3925C38.5801 67.3925 56.5614 67.3925 74.5927 67.2926C77.7394 67.1926 80.8861 66.8929 84.0328 66.3933C86.6301 65.9936 86.73 65.6938 85.2815 62.5462C57.4105 65.1942 29.6893 63.3456 1.61845 59.8983Z" fill="#0B9649"/>
<path d="M15.9036 76.8353C13.3063 76.8353 10.759 77.8845 8.91088 79.733C7.0628 81.5816 6.01389 84.0797 6.01389 86.7277C6.01389 92.0736 10.6091 96.67 15.9036 96.62C18.451 96.5201 20.8984 95.4709 22.6466 93.7223C24.3948 91.9736 25.5436 89.5255 25.6435 86.9775C25.7933 81.6815 21.2481 76.9352 15.9036 76.8353ZM19.2002 89.8752C18.3511 90.7745 17.1523 91.3241 15.9036 91.4241C14.605 91.524 13.4562 91.0244 12.4572 90.175C11.5581 89.3257 11.0087 88.1266 10.9088 86.8775C10.9088 86.278 11.0087 85.6285 11.2085 85.1289C11.4582 84.5293 11.7579 84.0797 12.2075 83.5801C12.657 83.1304 13.1065 82.8306 13.7559 82.5309C14.3053 82.2811 14.9047 82.1312 15.504 82.1312C16.7527 82.0313 17.9515 82.5309 18.9005 83.2803C19.7996 84.1296 20.349 85.2788 20.4489 86.4779C20.4988 87.6769 20.0993 88.9759 19.2002 89.8752Z" fill="#0B9649"/>
<path d="M73.4439 79.8329C72.5448 78.9336 71.4459 78.1343 70.2971 77.6846C69.1483 77.135 67.8497 76.9352 66.551 76.9352C64.0037 77.0351 61.5562 77.9844 59.7081 79.8329C57.86 81.6815 56.8611 84.1296 56.8111 86.6777C56.8111 89.2757 57.7102 91.7238 59.5083 93.5723C61.3065 95.4209 63.704 96.57 66.2513 96.62C71.5458 96.7699 76.141 92.3233 76.141 86.8275C76.141 85.5285 75.8913 84.2296 75.4418 83.0804C75.0422 81.9313 74.3429 80.7822 73.4439 79.8329ZM69.9974 90.0251C69.1483 90.8744 67.9496 91.424 66.7009 91.474C66.1015 91.474 65.4522 91.374 64.9527 91.1742C64.4032 90.9244 63.9038 90.6246 63.4043 90.175C62.9547 89.7253 62.6551 89.2757 62.4053 88.7261C62.1556 88.1765 62.0057 87.577 62.0057 86.9774C61.9058 84.2295 63.704 82.2311 66.3512 82.1312C66.9506 82.1312 67.6499 82.2311 68.2492 82.381C68.8486 82.6308 69.3981 82.9305 69.9475 83.3802C70.397 83.8298 70.7966 84.3794 71.0963 84.929C71.346 85.5286 71.4959 86.178 71.5458 86.7776C71.346 88.0266 70.8465 89.1757 69.9974 90.0251Z" fill="#0B9649"/>
<path d="M87.2296 70.4402C86.6302 77.7845 79.4876 84.0297 79.4876 84.0297C80.8861 85.0289 81.935 85.9282 83.1838 86.7276C84.9319 87.7269 86.5802 87.4271 87.779 85.8783C89.5272 83.58 90.9257 81.032 92.7738 78.8337C96.8196 73.8875 87.2296 70.4402 87.2296 70.4402Z" fill="#0B9649"/>
<path d="M44.2242 32.3195C44.3241 32.3195 44.3241 32.3195 44.2242 32.3195Z" fill="#0B9649"/>
<path d="M60.2575 43.8106C60.1576 43.6608 60.0078 43.5608 59.858 43.5608C58.0099 43.5608 55.8621 45.7591 54.8631 44.8099C53.8142 43.7607 55.013 41.8122 57.4105 41.2626C57.2607 41.1127 57.1108 41.0128 56.961 40.8629C55.8122 39.7138 54.5635 39.0143 53.2149 37.4156C53.115 37.3156 53.065 37.2657 52.9152 37.2657C50.3678 36.7161 48.0702 39.1143 46.5718 37.6654C45.1233 36.2165 47.321 33.8183 50.8673 34.1181C52.2658 34.268 48.9693 31.0705 47.4708 28.9721C47.3709 28.8222 47.1711 28.7223 47.0213 28.7223C44.4739 29.022 42.1264 30.7707 41.1274 29.7715C40.0785 28.7223 41.2273 27.0236 42.7258 26.1742C43.1253 25.9244 43.8746 25.7745 44.5738 25.7246C44.9734 25.6247 45.1233 25.3249 44.9734 24.9752C44.5738 24.0758 43.9745 22.527 43.425 22.1273C42.8756 21.7276 39.579 22.1273 37.7309 23.1266C37.1316 23.5263 36.1326 21.1281 38.5801 19.8291C39.8787 19.1296 42.0265 19.5293 42.1264 18.68C42.2263 17.7807 41.4271 16.3817 41.2773 15.9321C39.8787 12.6346 37.2315 14.6331 36.1326 14.3333C34.5343 13.8837 35.3834 10.7361 39.2793 11.1857C39.579 11.1857 39.8288 10.886 39.7289 10.5862C39.579 9.83677 39.4791 8.73761 39.579 7.83831C39.579 7.38865 40.0286 1.39328 36.2824 0.394047C34.8339 -0.4553 33.2356 0.0942712 30.0889 1.79297C29.8391 1.89289 29.7892 2.09272 29.7892 2.34253C30.4885 6.08965 31.3875 9.98668 31.937 13.9836C35.0837 35.4671 52.7154 49.1066 61.9058 50.5555C65.9516 51.3049 70.1972 51.255 74.243 50.4556C74.7924 50.3556 74.8424 49.5562 74.3429 49.4064C70.3471 48.2572 61.9558 45.6592 60.2575 43.8106Z" fill="#0B9649"/>
</svg>
