<svg width="97" height="91" viewBox="0 0 97 91" fill="none" xmlns="http://www.w3.org/2000/svg">
<path d="M61.7359 0.332913C66.1813 0.332913 75.172 -1.11599 77.9191 2.03159C83.2136 9.22605 88.5081 16.4205 93.8526 23.565C94.8515 24.864 95.8505 26.163 96.9993 27.6119C92.8536 31.9586 87.9587 35.2061 82.4144 37.904L77.2198 31.8587L76.6205 32.0085L75.072 50.6442L21.7275 51.3936C22.4767 48.246 63.1844 10.9747 61.7359 0.332913Z" fill="#0B9649"/>
<path d="M20.5786 31.8593L15.384 38.0045C15.384 38.0045 0 31.8093 0 29.1114L7.19251 19.3689C11.3382 13.7732 15.4839 8.27737 19.5297 2.68167C22.4267 -0.515872 36.2124 0.0836913 36.2124 0.0836913C35.5131 3.28123 41.6567 11.0253 45.3528 15.1721C46.9012 16.9207 46.9012 19.4688 45.5027 21.3174C38.6598 29.9607 26.872 42.1513 21.8273 46.7478L21.5276 32.2589L20.5786 31.8593Z" fill="#0B9649"/>
<path d="M65.9315 68.4305L61.8857 61.0862H75.6214C78.7682 74.4259 79.4674 87.1661 79.4674 87.1661C64.8826 77.5235 28.3705 97.8079 18.8304 88.3152C15.9334 83.0193 21.1281 65.5327 21.7274 61.0862H35.9626L31.9668 68.2806C35.2634 70.429 38.8097 71.728 42.2561 72.977C42.8055 73.2268 44.1042 72.2276 44.6536 71.4282C46.0522 69.4297 47.2509 67.2814 48.9491 64.5835C50.1978 66.5819 51.0969 68.1307 52.0958 69.6296C54.2436 72.927 53.6442 74.2261 58.5891 71.7779C60.7868 70.7287 63.1843 69.7295 65.9315 68.4305Z" fill="#0B9649"/>
<path d="M46.1521 54.1415C46.5517 53.9916 46.8514 53.8417 47.201 53.7418C53.2447 53.1922 53.2447 53.1922 56.3915 58.4382C58.0897 61.286 59.7879 64.1338 61.686 67.1815L55.7921 69.9294L46.1521 54.1415Z" fill="#0B9649"/>
<path d="M41.9564 69.9294L35.9626 67.1815L43.2551 55.2906C44.7036 57.6888 45.8524 59.4874 47.1011 61.4858L41.9564 69.9294Z" fill="#0B9649"/>
<path d="M39.9585 53.6918C38.4101 57.8886 38.4101 57.8886 35.0636 57.8886C30.6182 57.8886 26.9221 57.8886 22.2769 57.8886C22.177 56.4397 22.1271 55.3406 22.0272 53.7418C28.3706 53.6419 33.6651 53.6918 39.9585 53.6918Z" fill="#0B9649"/>
<path d="M57.8399 53.9417H75.5215C75.6214 55.1907 75.6214 56.3398 75.6714 57.7887C73.6235 57.8886 72.5247 57.9386 70.6766 57.9386C68.0793 57.9386 65.482 57.9386 62.9346 57.9386C59.3384 57.8886 59.3383 57.8886 57.8399 53.9417Z" fill="#0B9649"/>
</svg>
