<svg width="93" height="99" viewBox="0 0 93 99" fill="none" xmlns="http://www.w3.org/2000/svg">
<path d="M38.604 14.9884C40.3022 14.3889 41.3012 12.99 41.6008 10.6918C42.2502 6.39507 44.5977 3.24751 45.8964 1.6987C44.1482 0.699472 42.1003 0.0999229 40.0025 0C38.2543 0.0999229 36.2065 0.749434 34.0587 2.19832C33.2096 2.79785 32.2106 5.04611 31.9609 8.09376C31.811 10.5918 32.3105 12.6902 33.3095 13.7394C34.758 15.0384 36.9557 15.538 38.604 14.9884Z" fill="#0B9649"/>
<path d="M47.3449 2.64789C46.246 3.89693 43.8985 6.94462 43.2991 10.9416C42.8995 13.7894 41.3511 15.7878 39.2033 16.5872C38.554 16.837 37.8547 16.937 37.1055 16.937C35.3573 16.937 33.5093 16.2875 32.1607 14.9884C28.964 11.7909 31.4114 5.24591 32.2605 3.74705C29.913 5.94537 28.3146 10.0423 28.4645 13.04C28.964 20.6841 34.0087 24.5312 40.7018 24.5312C40.8017 24.5312 40.8017 24.5312 40.8516 24.5312C47.0452 24.5312 51.8402 19.5849 52.1898 12.7901C52.3896 8.69328 50.4417 4.99609 47.3449 2.64789Z" fill="#0B9649"/>
<path d="M53.938 5.94544C54.8371 7.79402 55.4864 9.94235 55.5364 12.1407C57.7341 10.8916 59.9817 10.0923 62.1295 9.54268L62.2794 9.64258L61.4302 10.3421C59.8319 11.6411 58.2336 13.09 56.3855 14.7886L55.9359 15.1883C55.9359 15.1883 55.3865 14.8886 55.3366 14.7886C54.3376 20.834 49.9921 25.8301 43.9983 27.7287C43.299 28.4781 42.6997 29.3275 42.0004 30.1768L41.6008 30.7264L41.0014 30.4266C40.5519 30.1768 40.1024 29.877 39.6029 29.5773C39.3032 29.3274 38.9036 29.1276 38.604 28.9777C38.7538 28.578 38.9037 28.2783 39.0535 27.9285C38.9536 27.8286 38.8037 27.7786 38.7538 27.6787C36.4561 27.379 34.4083 26.6295 32.5602 25.4804C28.5644 33.5242 30.1627 42.2675 30.6622 50.761C29.8131 58.6049 26.1169 67.8478 18.0753 70.9954C12.0815 76.4912 7.6361 82.0868 1.89206 87.9324C-3.95187 93.7779 5.08871 103.121 10.7828 96.5757C17.1262 89.731 24.6684 83.7856 29.4634 75.7418C29.863 75.3421 40.4021 68.6972 44.348 67.548C50.9911 65.3497 58.2835 67.648 65.0265 65.5496C79.6613 62.6518 90.6 50.0115 92.548 35.173C95.7946 12.8901 74.6165 -4.19675 53.938 5.94544ZM86.754 28.2283C86.6541 27.6787 86.6041 27.2291 86.5042 26.6795C85.4553 25.3805 84.2066 23.9815 82.9079 22.6326L82.3585 22.0331L83.3575 21.1337C83.7571 20.834 84.0567 20.5342 84.4064 20.2344C83.9568 19.2352 83.3575 18.3359 82.8081 17.3866C82.1088 17.9862 81.3595 18.6357 80.6603 19.2852L80.1108 19.8348L79.5614 19.2852C78.5625 18.3859 77.6634 17.4366 76.6644 16.5872L75.9651 15.9877L76.7143 15.3882C77.6134 14.6887 78.4126 14.0892 79.2618 13.4896C78.4126 12.7402 77.5136 12.0907 76.5146 11.4912C75.6655 12.0907 74.8163 12.7902 73.9672 13.4896L73.4178 13.8893L72.8684 13.4896C71.27 12.1906 69.8215 11.0415 68.3231 10.0423L67.424 9.44275L67.9734 8.99309C78.2627 9.44274 85.755 17.7863 86.754 28.2283ZM68.2732 54.7579L67.8736 54.3082L68.2732 53.8586C69.422 52.4097 70.4209 51.0108 71.4698 49.7118L72.1691 48.8624L72.7685 49.7118C73.7675 51.1107 74.6165 52.4097 75.4656 53.7087C73.7674 55.1576 72.0192 56.3067 70.1712 57.3059C69.5718 56.4566 68.9724 55.6072 68.2732 54.7579ZM63.4282 55.0077C62.1795 56.7564 60.9807 58.555 59.8319 60.3036C59.2825 60.4035 58.783 60.4035 58.2335 60.4035C57.2346 59.1545 56.1857 57.8555 55.0868 56.6564L54.6872 56.2068L54.9869 55.6572C56.1357 53.8086 57.2846 51.9101 58.5333 50.0615L59.0827 49.2121L59.782 49.9616C61.0806 51.3605 62.2294 52.6595 63.3782 54.0085L63.7778 54.4581L63.4282 55.0077ZM51.6404 52.9093C50.1919 51.4604 48.7434 50.0115 47.195 48.6126L46.6456 48.163L47.0452 47.5634C48.194 45.9646 49.3428 44.266 50.6414 42.5173L51.1909 41.8178L51.8901 42.3674C53.4385 43.6664 54.887 45.0653 56.3355 46.3643L56.7851 46.814L56.3855 47.3636C55.1368 49.1122 53.988 50.9108 52.8392 52.7094L52.2898 53.5588L51.6404 52.9093ZM69.6717 29.1276L70.2711 29.6772L69.7216 30.2767C68.2731 31.8755 67.0244 33.3244 65.8257 34.8232L65.2763 35.5227L64.6769 34.9231C63.3782 33.6241 62.1295 32.475 60.9307 31.3759L60.3314 30.8263L60.8808 30.2268C62.0296 28.9278 63.3283 27.6288 64.8767 26.03L65.4261 25.4804L65.9755 25.9301C67.2242 26.9793 68.423 28.0784 69.6717 29.1276ZM67.6738 23.2321L68.373 22.6326C69.8215 21.2337 71.27 19.9347 72.9183 18.5857L73.4677 18.136L74.0172 18.5857C75.0661 19.485 76.1649 20.4842 77.1639 21.4835L77.7633 22.0331L77.1639 22.5826C75.7154 23.9816 74.4168 25.3305 73.1181 26.7294L72.5687 27.279L71.9693 26.7294C70.9204 25.8301 69.7716 24.8309 68.423 23.7317L67.6738 23.2321ZM62.6789 37.671L63.1285 38.1207L62.6789 38.6703C61.63 40.1192 60.3813 41.6679 59.2325 43.3666L58.6831 44.1161L57.9838 43.5165C56.5852 42.2175 55.1368 40.9685 53.7882 39.7694L53.1888 39.3198L53.6383 38.7202C54.887 37.1214 56.1857 35.5727 57.4843 34.0238L58.0338 33.4243L58.6331 33.9739C60.1316 35.123 61.4802 36.422 62.6789 37.671ZM61.5302 46.8639L61.0806 46.4143L61.4802 45.8647C62.7289 44.166 63.7778 42.6672 64.8767 41.2683L65.476 40.5188L66.1753 41.2183C67.474 42.6672 68.7726 44.216 69.9214 45.6649L70.321 46.2144L69.9214 46.6641C68.6727 48.2129 67.5239 49.5619 66.525 50.8609L65.9256 51.6103L65.2263 50.8609C63.9776 49.4619 62.7789 48.1629 61.5302 46.8639ZM72.4188 43.5665L71.8195 42.8171C70.6707 41.3682 69.372 39.9193 67.9734 38.3705L67.5239 37.8209L67.9734 37.2713C69.2721 35.6726 70.6707 34.0738 72.0193 32.525L72.5687 31.9255L73.168 32.525C74.5666 33.9239 75.9152 35.2729 77.3637 36.8716L77.8132 37.4212L77.2638 37.9708C75.8153 39.5196 74.3668 41.1184 72.9183 42.8171L72.4188 43.5665ZM75.4656 29.9769L74.9162 29.4274L75.4656 28.8778C76.7143 27.5788 78.063 26.1799 79.4615 24.8809L80.0609 24.3313L80.6103 24.9308C82.0588 26.4796 83.5073 28.1284 84.806 29.7771L85.2555 30.3766L84.7061 30.9262C83.4574 32.0753 82.1587 33.2245 80.9599 34.5235L80.3606 35.123L79.8112 34.5235C78.4126 32.9247 76.9141 31.4258 75.4656 29.9769ZM82.9079 36.9716C84.1566 35.7225 85.3554 34.5734 86.5042 33.5242L86.754 33.2744C86.5042 35.6726 85.9048 38.1207 84.9059 40.5688C84.2066 39.7195 83.5073 38.8201 82.858 37.9708L82.4085 37.4212L82.9079 36.9716ZM86.8039 28.628C86.8039 28.9277 86.9038 29.2275 86.9038 29.5273C86.8039 29.2275 86.8039 28.9277 86.8039 28.628ZM59.4822 16.1376C61.1805 14.5888 62.8788 13.1399 64.5271 11.8409L64.9765 11.4412L65.526 11.8409C67.2742 13.1399 68.8226 14.289 70.2711 15.4381L71.0203 16.0377L70.321 16.6372C68.8725 17.9362 67.2742 19.3351 65.7258 20.834L65.2763 21.2836L64.7268 20.8839C63.1784 19.7348 61.5301 18.5857 59.732 17.4366L58.8829 16.887L59.4822 16.1376ZM52.1898 23.3321C53.4385 22.0331 54.6373 20.784 55.7861 19.6349L56.2356 19.1853L56.7851 19.5849C58.4833 20.6341 60.2315 21.8832 61.9796 23.1322L62.7289 23.6818L62.0296 24.3812C60.7809 25.6303 59.5822 26.9293 58.2835 28.2783L57.7341 28.8278L57.1347 28.3782C55.3865 26.9792 53.7382 25.7802 52.1399 24.6311L51.3907 24.0815L52.1898 23.3321ZM44.7475 31.7756C46.0462 30.1768 47.4448 28.4781 48.7934 26.9293L49.2429 26.3797L49.8423 26.8294C51.5405 28.0784 53.2887 29.3774 54.887 30.7264L55.4864 31.276L54.937 31.8755C53.6883 33.2744 52.4896 34.7733 51.0411 36.5719L50.5915 37.1714L49.9921 36.7218C48.3938 35.4727 46.5957 34.1737 44.8475 32.9746L44.1482 32.525L44.7475 31.7756ZM41.7506 35.6726L42.2002 35.073L42.7996 35.5227C44.6477 36.8217 46.3959 38.0707 48.0941 39.3697L48.6935 39.8194L48.2439 40.4189C46.9952 42.0177 45.8464 43.6165 44.6976 45.3151L44.1482 46.0146L43.4489 45.465C41.7507 44.0661 40.0525 42.7671 38.3043 41.568L37.7049 41.1184L38.1544 40.5188C39.553 38.7202 40.7017 37.1215 41.7506 35.6726ZM42.0004 49.412C41.451 50.2613 40.8516 51.1606 40.3022 52.1099C38.604 49.9116 37.4052 47.3636 36.7059 44.4658C38.4541 45.7648 40.2522 47.1637 41.8506 48.4627L42.4 48.9124L42.0004 49.412ZM38.7538 32.8248L39.503 33.2744L38.9536 33.9739C38.0545 35.2229 37.1055 36.422 36.2564 37.671C36.4062 35.8225 36.8058 33.9739 37.4052 31.9754C37.9047 32.2752 38.4041 32.525 38.7538 32.8248ZM29.9629 70.146C27.7652 71.545 27.2158 69.7464 27.5654 68.897L34.4582 55.4573C35.0576 60.1537 41.3012 63.2014 41.3012 63.2014L29.9629 70.146ZM42.5998 54.5081C43.1992 53.5089 43.7486 52.6095 44.348 51.7602L44.8974 50.9108L45.5967 51.5104C47.195 52.9593 48.7434 54.5081 50.2918 56.0569L50.6914 56.5065L50.3917 57.0561C50.092 57.6057 49.7923 58.1053 49.4926 58.6549C46.7954 57.7556 44.4978 56.3067 42.5998 54.5081ZM52.4895 59.6541L52.7892 59.0546L53.4885 59.9039C53.1888 59.804 52.8891 59.754 52.4895 59.6541ZM64.2273 59.5042C64.6269 58.9547 64.9266 58.505 65.2763 57.9554L65.8756 57.0561L66.5749 57.9554C66.7248 58.2052 66.8746 58.4051 67.0245 58.6549C66.1254 58.9547 65.1264 59.2544 64.2273 59.5042ZM78.6124 50.5611C78.3627 50.8109 78.1629 51.1107 77.9131 51.3105C76.9142 49.7617 75.8653 48.1629 74.7664 46.6141L74.3668 46.0646L74.7664 45.6149C76.3648 43.7663 77.9131 42.0177 79.3616 40.4689L79.961 39.7694L80.5604 40.4689C81.4595 41.618 82.4085 42.7671 83.2576 43.9162C82.0589 46.2644 80.5604 48.4128 78.6124 50.5611Z" fill="#0B9649"/>
</svg>
