<svg width="94" height="95" viewBox="0 0 94 95" fill="none" xmlns="http://www.w3.org/2000/svg">
<path d="M6.32007 51.2013L15.4605 58.6456C24.651 39.2605 38.6864 25.3213 58.0164 16.0284L50.5241 6.98535C30.6947 17.0276 16.2098 31.5165 6.32007 51.2013Z" fill="#0B9649"/>
<path d="M18.1077 60.4943L29.3959 65.7902C38.4365 48.2537 47.627 39.1107 65.1088 30.0677C63.2607 26.3205 61.5625 22.7233 59.6645 18.7764C40.5843 27.7694 26.9984 41.359 18.1077 60.4943Z" fill="#0B9649"/>
<path d="M41.7832 52.4505L74.749 85.3252C78.3453 82.6273 81.492 79.4797 84.2391 75.8825L51.2234 42.708C47.6271 45.4059 44.4305 48.4036 41.7832 52.4505Z" fill="#0B9649"/>
<path d="M4.27211 48.1037C14.2118 29.4181 28.547 15.0791 47.5772 4.93689C46.3285 3.03835 44.9799 1.78931 43.3816 1.08984C20.3055 2.78854 1.92456 21.2743 0.226318 44.3066C0.875645 45.6056 2.17428 46.7048 4.27211 48.1037Z" fill="#0B9649"/>
<path d="M73.75 40.1599C71.4524 37.7617 69.1548 35.3136 66.7073 32.7156L54.7698 39.6103C65.6584 50.5019 76.2474 61.0938 87.0362 71.8855C89.4837 67.8386 91.2318 63.4419 92.3806 58.6956C92.1309 58.4458 91.9811 58.246 91.7813 57.9962C85.6377 52.2006 79.7438 46.1553 73.75 40.1599Z" fill="#0B9649"/>
<path d="M32.1431 67.1891C41.1337 76.1822 49.6249 84.7256 58.216 93.2691C62.9112 92.12 67.2567 90.2714 71.3025 87.8233L39.0359 55.5481L32.1431 67.1891Z" fill="#0B9649"/>
<path d="M4.47193 66.3898C12.3138 72.8349 21.1047 77.9809 30.6947 81.3284C35.0402 82.9271 39.5855 84.376 44.2806 84.7257L44.7301 83.8264C39.985 79.13 35.24 74.5336 30.4949 69.9371C29.7956 69.3376 28.9465 68.788 28.0475 68.4882C18.1078 64.6412 9.01722 58.5958 1.67484 50.8018C1.27526 50.4021 0.825739 49.5028 0.126465 48.6035C0.226361 54.6489 1.525 60.3944 3.67277 65.6404C3.87256 65.9402 4.17224 66.19 4.47193 66.3898Z" fill="#0B9649"/>
<path d="M67.7561 28.6189C68.1557 29.6181 68.6552 30.6174 69.4543 31.3668C73.9996 36.0632 78.5948 40.6596 83.0902 45.2561L83.9393 45.0063C83.9393 43.9571 83.7894 42.8579 83.6396 41.8087C80.1932 28.0693 73.8998 15.7288 65.2587 4.63735C60.214 2.48901 54.6198 1.18999 48.8757 0.940186C49.0256 1.09007 49.1255 1.33987 49.2753 1.48975C57.5168 9.08391 63.5605 18.1769 67.7561 28.6189Z" fill="#0B9649"/>
<path d="M87.3857 45.9553C87.9352 50.252 90.4326 52.4503 93.1298 54.9484C93.5294 52.6502 93.6792 50.252 93.6792 47.8039C93.6792 31.1168 84.8883 16.3781 71.702 8.08447C72.1516 8.78393 72.5512 9.38347 73.0007 10.0829C79.9435 21.1744 85.8873 32.7655 87.3857 45.9553Z" fill="#0B9649"/>
<path d="M52.3221 91.8701C50.574 89.472 48.2764 88.4727 45.2795 88.2729C42.3825 87.9731 39.5354 87.4235 36.7883 86.6741C26.2992 83.8263 16.6092 79.1799 7.21899 72.585C15.5104 85.8248 30.1951 94.6679 46.9777 94.6679C49.525 94.6679 51.9725 94.4182 54.3201 94.0684C53.6208 93.319 52.9215 92.6195 52.3221 91.8701Z" fill="#0B9649"/>
</svg>
